{"glyphs":{"0":{"ha":688,"x_min":-184,"x_max":849,"o":"m 487 1017 l 492 1017 q 602 945 564 1017 q 640 912 615 943 q 789 747 682 902 q 849 627 849 690 l 849 588 q 608 193 849 425 q 162 0 377 0 q -3 55 52 16 l -58 99 q -168 264 -168 190 q -184 302 -178 265 l -184 352 q 239 928 -184 576 q 487 1017 408 1017 m -8 248 q 107 214 -8 224 q 574 494 340 214 q 673 709 659 628 q 618 797 673 772 l 585 819 l 580 819 q 239 621 438 810 q -8 248 5 394 z "},"1":{"ha":688,"x_min":-13,"x_max":703,"o":"m 503 1017 l 536 1017 q 697 930 625 1002 l 703 903 q 294 151 604 747 l 224 22 q 170 0 189 0 q 127 22 151 0 l 100 16 l 95 22 l 95 27 l 90 22 l 84 22 q 73 38 73 22 l 62 38 l 57 33 l 52 33 l -13 92 l -13 97 q 208 500 -13 118 l 218 532 l 213 532 q 186 549 186 532 l 191 554 q 154 591 169 554 q 138 602 138 591 l 132 597 l 127 597 q 95 624 95 597 q 68 640 68 631 q 450 1006 117 751 l 503 1017 z "},"2":{"ha":688,"x_min":-227,"x_max":909,"o":"m 572 1017 l 632 1017 q 877 892 760 1007 l 909 859 q 486 446 909 790 l 279 256 l 284 256 q 502 277 426 277 l 507 272 l 507 267 l 513 272 l 551 272 l 551 261 q 524 250 524 261 l 529 245 l 562 245 l 562 234 l 529 229 l 529 223 l 567 223 l 567 218 q 545 201 567 201 l 545 196 l 567 196 l 562 169 l 562 158 l 583 158 l 583 147 q 567 125 567 147 l 441 87 q -9 0 92 0 l -20 0 q -200 81 -60 0 q -227 125 -227 102 l -227 130 q -4 321 -201 170 l 545 832 l 540 832 q 300 642 418 769 q 241 598 269 598 l 235 598 q 88 647 88 615 q 61 701 61 659 q 338 935 61 765 q 572 1017 455 1017 z "},"3":{"ha":688,"x_min":-189,"x_max":861,"o":"m 541 1017 l 602 1017 l 607 1011 l 612 1017 l 618 1017 q 795 956 795 989 q 844 890 831 928 l 844 878 l 839 873 q 861 768 861 807 l 861 751 q 656 591 861 686 l 656 580 q 745 404 745 540 l 745 332 q 275 77 637 199 q -78 0 34 0 l -139 50 l -134 55 l -134 77 q -155 100 -155 77 q -166 127 -166 100 l -183 127 l -183 133 l -178 138 l -178 144 l -189 155 l -189 160 l -172 160 l -172 165 l -178 172 l -178 177 l -161 182 l -166 188 l -166 193 l -161 199 l -155 199 l -139 193 q 458 387 17 193 q 486 404 458 399 l 486 409 l 463 414 l 203 398 q 82 536 125 398 l 66 564 q 303 674 66 604 l 585 801 l 585 806 l 574 806 q 248 724 471 806 l 237 724 q 143 818 193 724 q 126 873 126 846 l 126 878 q 326 983 126 945 q 541 1017 420 1017 z "},"4":{"ha":688,"x_min":-133,"x_max":808,"o":"m 213 1017 q 345 910 273 1017 l 345 900 q 136 564 273 767 l 136 559 l 142 559 l 355 564 l 492 884 l 517 895 q 655 798 612 862 l 655 793 l 578 620 l 553 559 l 619 559 l 625 554 l 629 559 l 640 559 l 665 554 l 696 559 l 716 559 q 726 538 726 559 q 757 503 750 538 q 808 442 770 503 l 808 432 q 690 397 769 397 l 686 401 l 680 401 l 675 397 l 599 401 l 482 401 q 401 259 454 372 q 269 5 303 102 l 248 0 q 197 35 203 15 q 182 45 182 35 l 177 41 l 172 41 q 146 66 146 41 q 121 81 121 66 q 258 387 121 181 l 258 391 l 254 391 l 50 376 q -128 503 -31 376 l -133 524 l -133 528 l -11 691 l 187 1012 l 213 1017 z "},"5":{"ha":688,"x_min":-407,"x_max":1038,"o":"m 851 1016 l 928 1016 l 933 1010 l 939 1016 q 1016 989 1016 1016 l 1038 978 q 972 945 1038 949 q 961 928 972 928 l 961 911 q 988 901 988 911 q 972 890 988 890 l 972 879 l 999 879 l 994 857 l 999 840 q 368 769 957 825 l 285 610 l 285 599 l 291 599 q 543 626 419 626 q 681 538 629 626 q 713 418 702 538 q 142 77 713 296 l -22 27 l -193 0 l -220 5 l -264 5 l -297 16 q -325 39 -297 39 q -347 55 -325 55 q -368 77 -347 77 l -368 82 l -363 88 l -363 94 l -380 94 l -380 104 l -363 104 l -374 115 l -407 115 l -407 126 q -275 176 -388 126 q 439 406 -57 176 q 483 434 439 415 l 483 439 l 477 439 q 27 319 286 439 l 11 319 q -72 423 -72 388 l -66 423 l -72 439 q 16 522 -72 464 q 153 802 16 555 l 192 923 q 291 1000 264 1000 l 313 1000 l 362 989 q 851 1016 685 1016 z "},"6":{"ha":688,"x_min":-95,"x_max":777,"o":"m 690 1017 q 760 930 728 998 l 760 920 q 658 850 726 867 l 459 715 l 432 688 q 556 710 513 710 l 588 710 l 593 705 l 599 710 q 707 624 648 710 q 777 495 777 517 l 777 479 q 400 92 777 360 q 125 0 254 0 q 39 38 105 0 q -62 140 5 45 q -95 312 -95 157 q 212 758 -49 543 q 524 974 484 974 q 690 1017 621 1017 m 411 683 l 411 677 l 421 677 l 421 683 l 411 683 m 276 435 l 276 441 q 298 457 276 454 l 298 463 l 292 463 l 276 457 l 276 463 l 228 446 l 217 457 l 222 463 l 222 468 l 195 473 q 66 167 66 313 l 88 167 q 562 484 224 167 l 599 543 l 599 549 q 292 435 537 549 l 276 435 z "},"7":{"ha":688,"x_min":-95,"x_max":783,"o":"m 632 1017 l 713 1006 l 723 1006 q 750 980 723 980 l 745 953 l 745 942 q 783 861 783 899 l 783 834 q 546 581 676 751 q 400 431 536 581 q 83 11 216 235 l 50 0 q -95 134 -81 104 l -95 156 q 309 667 25 368 l 406 775 l 406 781 q 56 748 159 764 q -95 878 -6 748 l -95 894 l -90 899 l -95 904 l -95 909 q -25 980 -82 980 l -14 980 l -14 985 l 13 980 l 56 980 l 497 1001 l 551 1001 q 632 1017 606 1001 z "},"8":{"ha":688,"x_min":-165,"x_max":828,"o":"m 507 1015 l 582 1015 q 694 940 661 1015 q 828 780 828 820 l 823 780 l 828 774 l 828 758 q 684 561 828 665 l 641 539 l 662 518 l 667 524 l 684 491 l 689 496 l 700 496 q 743 395 708 421 q 769 342 755 395 l 769 336 q 411 59 769 224 q 155 0 311 16 q -106 112 -12 0 l -102 117 q -165 245 -165 165 l -165 267 q 59 524 -165 376 l 85 534 q 37 652 37 589 q 235 924 94 843 q 507 1015 393 1015 m 593 903 q 448 844 592 895 l 454 838 l 454 833 q 208 619 290 762 l 219 619 q 545 715 351 619 q 657 849 611 749 l 657 865 q 593 903 648 903 m 273 438 l 224 444 q -11 230 43 354 l -16 197 q 48 176 -16 176 l 69 176 q 561 379 303 176 q 593 438 593 417 q 507 486 590 452 q 273 438 376 438 m 689 486 l 689 475 l 694 475 l 694 486 l 689 486 z "},"9":{"ha":688,"x_min":-101,"x_max":867,"o":"m 589 1017 q 675 968 650 1017 l 680 968 q 728 1000 716 985 l 723 1006 l 728 1011 l 760 1011 q 825 963 777 988 q 867 894 867 920 l 867 872 l 803 781 l 808 765 q 718 669 808 755 q 659 583 713 637 l 664 578 l 664 572 q 610 471 625 528 q 536 321 587 462 q 477 187 528 320 q 429 123 465 184 q 402 80 409 123 l 349 0 l 343 0 l 327 11 l 321 5 l 316 5 q 258 64 277 64 l 252 59 l 214 102 l 214 107 l 402 524 l 397 524 q 123 471 222 471 q -58 589 3 471 l -64 594 l -69 594 l -64 600 l -64 610 l -75 621 l -79 615 q -101 680 -101 652 l -101 685 q 247 947 -101 799 l 262 942 q 589 1017 469 1017 m 145 674 l 145 669 l 151 669 q 595 840 334 688 l 595 846 l 589 846 q 204 711 483 839 q 145 674 176 684 z "}," ":{"ha":345,"x_min":0,"x_max":0,"o":""},"!":{"ha":456,"x_min":-78,"x_max":542,"o":"m 412 998 l 418 992 l 424 992 l 429 998 l 435 998 q 542 913 507 972 l 542 890 l 328 462 q 317 439 317 462 q 277 366 303 439 q 254 298 254 344 q 204 282 233 282 q 114 321 178 304 q 63 389 63 365 q 356 986 260 774 l 412 998 m 35 298 q 187 197 107 298 l 187 192 q 74 0 101 0 l 57 0 q -44 28 28 20 l -78 68 l -78 96 q 29 298 -78 208 l 35 298 z "},"\"":{"ha":456,"x_min":46,"x_max":386,"o":"m 343 1072 l 357 1072 q 386 1018 370 1061 l 383 1013 l 386 1008 l 386 982 q 282 753 386 943 l 277 753 l 277 766 l 275 766 l 269 758 l 256 762 l 221 758 l 218 771 q 311 1049 231 855 q 343 1072 328 1072 m 153 1069 q 214 1006 197 1069 l 214 1002 q 165 871 214 961 q 107 746 138 802 l 102 746 q 94 764 95 746 l 92 760 l 89 760 q 73 777 73 768 l 70 773 l 67 773 l 64 777 l 62 777 l 54 773 l 46 791 q 131 1051 56 880 l 153 1069 z "},"#":{"ha":906,"x_min":-248,"x_max":1267,"o":"m 852 1017 q 994 928 930 1017 l 994 918 l 989 891 l 1162 922 l 1178 918 l 1219 928 l 1225 922 l 1230 922 l 1246 928 l 1246 918 l 1236 918 l 1236 912 q 1267 881 1249 912 l 1219 865 l 1219 860 l 1225 854 l 1225 849 l 1199 844 l 1204 839 l 1204 833 q 1167 818 1188 818 l 1167 812 l 1178 812 l 1209 818 l 1209 812 q 1240 791 1209 795 l 1240 787 l 1209 776 l 1209 770 l 1225 770 l 1261 776 l 1261 770 q 947 692 1261 749 q 869 640 869 692 l 810 524 l 816 524 l 842 530 l 842 519 l 821 519 l 821 514 l 848 503 l 873 509 l 873 498 l 852 498 l 852 493 l 863 493 l 863 477 l 821 472 l 827 467 l 827 461 q 753 414 793 461 l 758 409 l 758 404 l 753 398 l 779 404 l 790 404 l 790 393 l 774 393 l 774 388 q 806 372 806 385 l 800 367 l 810 367 l 810 351 q 690 299 690 328 q 538 31 559 38 q 501 47 513 31 l 496 42 l 470 42 l 465 63 l 460 58 l 454 58 l 439 68 l 433 63 l 418 63 q 381 105 381 92 q 444 262 381 142 l 439 262 q 166 189 166 211 q 103 26 103 52 q 56 0 76 0 q 9 21 37 21 l 3 42 l -12 31 q -91 100 -44 31 l -81 136 l -85 136 l -143 131 q -248 262 -217 170 q -170 325 -226 325 q 61 393 43 374 l 134 530 l 130 530 l -44 498 q -143 624 -143 572 q -23 708 -143 695 q 260 770 260 749 q 365 996 345 981 l 391 1001 l 433 1001 q 543 912 492 1001 l 543 907 q 501 807 543 884 l 507 807 l 737 844 q 852 1017 801 1017 m 1178 839 l 1178 833 l 1188 833 l 1188 839 l 1178 839 m 1152 812 l 1152 807 l 1162 807 l 1162 812 l 1152 812 m 1188 770 l 1188 766 l 1199 766 l 1199 770 l 1188 770 m 1162 766 l 1162 760 l 1178 760 l 1178 766 l 1162 766 m 318 440 l 323 440 q 570 498 567 486 l 637 634 q 381 566 381 586 l 318 440 z "},"$":{"ha":688,"x_min":-524,"x_max":768,"o":"m 524 1116 q 674 1002 674 1065 l 662 977 q 762 921 726 977 l 756 915 l 768 852 q 618 783 768 783 q 549 714 549 772 l 498 626 l 498 620 q 606 507 606 585 l 618 444 l 612 438 l 612 431 l 618 425 l 618 419 q 153 143 618 303 q 103 55 153 101 q 53 -7 87 -7 l 60 -26 l -35 -171 l -60 -171 l -92 -146 l -98 -152 q -154 -121 -143 -152 q -179 -102 -179 -121 l -179 -96 q -92 68 -179 -47 l -92 74 q -443 18 -330 18 l -493 18 l -493 24 q -474 36 -493 36 l -474 49 l -480 49 l -511 43 l -518 49 l -518 61 l -468 93 l -443 93 l -443 99 l -468 99 l -486 93 l -486 105 l -468 105 l -468 111 l -480 111 q -493 130 -480 130 l -493 136 l -486 143 l -486 149 q -524 168 -519 149 l -148 256 q 122 381 122 323 l 172 456 l 172 469 q -16 576 33 469 l -28 614 l -28 651 q 417 940 -28 809 q 524 1116 467 1116 m 216 651 l 286 651 l 304 695 l 298 695 l 216 651 m 367 456 l 367 450 l 373 450 l 411 475 l 398 475 l 398 481 q 367 456 370 469 z "},"%":{"ha":1092,"x_min":-25,"x_max":1123,"o":"m 939 1000 l 945 1000 q 1123 904 1042 1000 l 1123 880 l 701 517 l 701 511 l 772 524 q 820 488 820 520 q 975 357 861 488 q 998 315 998 347 l 998 286 q 796 155 903 155 l 772 155 q 552 321 634 155 l 552 387 q 165 12 311 189 l 130 0 q 46 54 65 54 l 46 71 l 28 60 l -25 125 l -25 131 q 165 333 -12 165 l 814 899 q 939 1000 925 1000 m 314 916 q 361 880 335 913 q 505 755 400 867 q 534 690 525 755 q 308 547 452 547 l 308 553 l 290 547 q 94 690 191 547 l 82 762 q 314 916 141 916 m 243 708 l 243 702 l 249 702 q 361 768 286 702 l 368 768 l 368 773 q 338 791 368 787 q 243 708 311 782 m 707 309 l 719 309 q 831 375 756 309 l 838 375 l 838 380 q 808 399 838 391 q 707 309 781 390 z "},"&":{"ha":1141,"x_min":81,"x_max":1061,"o":"m 762 996 l 815 996 q 956 932 899 996 q 1014 870 1014 890 q 941 650 1014 732 q 631 503 918 612 l 606 482 q 684 351 610 441 l 689 346 l 700 346 q 914 561 802 418 l 920 561 l 925 555 l 930 555 l 941 566 l 946 566 l 951 540 l 946 534 l 951 534 l 967 545 l 988 540 l 993 545 l 998 529 l 988 508 l 1019 519 l 1019 498 q 946 409 1000 457 l 951 404 l 951 398 q 914 367 935 367 l 920 361 l 920 356 q 815 246 920 342 q 1040 115 993 158 l 1061 79 q 1004 37 1061 56 q 773 121 907 37 q 694 157 758 121 q 343 5 514 41 l 307 0 q 113 79 113 44 q 81 131 96 85 l 87 136 l 81 163 l 81 194 q 197 404 81 283 l 401 555 l 401 603 q 548 875 415 736 q 762 996 686 989 m 616 661 l 621 661 q 846 775 846 732 l 862 859 l 857 875 l 841 875 q 642 718 729 841 q 616 661 616 680 m 260 125 l 264 125 q 579 257 539 210 l 464 377 l 458 377 q 281 199 311 301 q 260 125 260 157 z "},"'":{"ha":235,"x_min":68,"x_max":172,"o":"m 144 1085 q 172 1047 172 1073 q 150 757 166 836 l 147 755 l 147 738 l 142 738 l 142 764 l 139 764 q 134 745 139 750 l 134 728 l 128 728 l 128 757 l 125 757 l 125 743 l 120 743 l 120 745 q 115 774 120 774 l 112 774 l 112 790 l 106 785 l 106 769 l 101 769 l 101 776 q 96 764 96 776 l 85 762 l 82 764 q 74 752 82 752 l 71 755 l 71 928 l 68 1033 q 144 1085 107 1085 z "},"(":{"ha":514,"x_min":-202,"x_max":753,"o":"m 578 995 q 753 866 708 995 l 450 661 q 78 24 78 300 q 207 -180 78 -27 l 260 -263 l 260 -271 l 237 -294 l 146 -294 q -126 -51 40 -294 q -195 78 -155 -51 l -187 85 l -202 100 l -202 161 q 154 760 -186 395 q 578 995 427 995 z "},")":{"ha":514,"x_min":-270,"x_max":741,"o":"m 379 1014 l 423 1014 q 741 564 629 1014 l 733 557 l 741 519 l 741 475 q 482 33 741 299 q 54 -292 210 -243 l -19 -292 l -34 -277 l -93 -292 l -123 -284 l -189 -292 l -241 -292 l -241 -284 q -218 -269 -241 -269 l -211 -262 l -211 -255 l -270 -255 l -270 -240 q 239 158 -121 -184 q 423 519 423 372 l 423 557 l 416 593 l 423 593 q 254 955 406 725 q 379 1014 254 993 z "},"*":{"ha":694,"x_min":68,"x_max":667,"o":"m 290 1153 l 296 1153 l 296 1128 l 298 1128 l 298 1142 l 304 1142 l 317 1112 l 317 1104 l 320 1104 l 320 1123 l 323 1123 l 331 1118 l 331 1128 l 336 1128 l 339 1126 l 342 1126 q 350 1139 345 1139 l 353 1139 l 374 966 l 377 966 l 502 1020 l 510 1017 l 515 1023 l 521 1023 l 521 1017 l 499 1009 l 499 1006 l 502 1006 l 518 1012 l 518 1009 l 532 1015 l 532 1012 q 513 1001 532 1006 l 513 998 l 515 998 l 526 1004 l 529 1001 l 529 998 q 510 982 510 987 l 513 979 l 499 968 l 502 968 l 510 974 l 513 974 l 518 968 l 515 966 q 532 958 527 966 l 545 955 l 415 873 q 532 735 489 800 l 532 730 l 515 743 l 515 741 l 529 719 l 529 716 l 526 716 l 510 730 l 510 727 l 515 722 l 515 719 l 510 719 l 496 727 l 488 724 l 480 732 l 477 732 l 486 722 l 486 719 l 477 719 l 480 705 l 480 703 l 475 703 l 475 694 l 477 692 l 477 689 l 472 689 l 334 811 q 239 662 298 740 l 231 651 l 228 648 l 225 648 l 225 654 l 228 662 l 220 662 q 209 646 220 651 l 209 648 l 212 656 l 209 667 l 214 686 l 212 689 l 212 692 l 214 703 l 214 705 l 212 705 q 203 692 210 692 l 201 700 l 193 694 l 184 694 l 184 700 q 179 692 179 700 l 168 692 l 168 694 l 247 860 q 81 963 164 902 q 71 971 81 967 l 68 974 l 68 977 l 73 977 l 90 968 l 92 968 l 92 971 q 71 990 84 971 l 76 990 l 84 987 l 84 990 l 87 993 l 109 987 l 117 990 l 127 985 l 130 985 l 130 987 q 114 998 122 987 l 114 1001 l 122 1001 l 114 1009 l 119 1017 l 114 1031 l 117 1031 l 277 958 l 277 960 l 271 1036 l 277 1145 l 282 1145 l 282 1128 l 285 1128 l 290 1153 m 664 673 l 664 667 l 667 667 l 667 673 l 664 673 z "},"+":{"ha":688,"x_min":31,"x_max":730,"o":"m 458 777 l 495 777 q 589 721 548 777 l 589 707 q 523 585 589 694 l 500 538 l 711 524 l 711 515 l 650 515 l 650 510 l 711 500 l 730 500 l 730 491 l 664 491 l 664 486 l 711 486 l 711 477 l 608 454 l 608 449 l 654 449 l 654 439 l 640 439 l 640 435 l 669 430 l 669 420 l 664 416 l 664 411 l 687 407 l 687 393 l 462 383 l 458 383 q 410 346 410 383 q 298 177 328 177 l 298 191 l 293 191 q 265 139 276 139 l 256 149 q 241 125 252 125 l 237 125 l 237 134 l 232 134 l 185 97 q 176 116 176 97 l 162 116 l 162 121 q 256 374 170 176 l 251 374 l 162 364 q 31 477 95 364 l 31 491 q 106 543 49 543 l 275 547 l 336 543 q 444 768 429 768 l 458 777 z "},",":{"ha":378,"x_min":50,"x_max":314,"o":"m 237 136 q 314 83 314 124 l 237 -58 q 153 -203 163 -198 l 143 -203 l 143 -187 l 123 -195 l 117 -171 l 113 -171 q 83 -191 113 -183 q 70 -179 70 -189 l 66 -183 l 63 -183 q 50 -171 50 -177 q 174 103 50 -127 q 227 132 192 132 l 237 136 z "},"-":{"ha":454,"x_min":27,"x_max":431,"o":"m 293 385 l 361 385 l 420 382 l 420 377 l 388 377 l 388 374 q 412 369 407 374 l 429 372 l 431 372 l 431 366 l 393 363 l 393 361 l 418 361 l 420 363 l 420 361 q 385 350 420 355 q 363 342 385 342 l 363 339 l 391 339 l 391 334 l 382 334 l 382 328 l 399 328 l 399 323 l 396 320 l 396 317 q 412 307 412 317 l 410 307 l 95 271 q 30 326 72 271 l 27 339 q 149 377 27 377 l 293 385 z "},".":{"ha":378,"x_min":88,"x_max":271,"o":"m 170 167 l 189 167 q 271 111 231 167 l 271 104 q 186 0 197 0 l 183 0 q 163 16 163 7 l 160 13 l 157 13 q 88 49 116 13 l 88 59 q 147 163 88 91 l 170 167 z "},"/":{"ha":386,"x_min":-26,"x_max":427,"o":"m 407 963 q 427 928 425 963 q 311 629 424 901 q 60 14 100 100 q 17 -65 31 -48 l 17 -60 l 25 -41 l 25 -38 l 23 -38 q 5 -68 23 -43 l 5 -62 l 13 -43 l 13 -41 l 11 -41 q 5 -54 9 -54 l 5 -52 l 11 -22 l 9 -14 l 15 5 l 15 8 l 13 8 q 3 -14 8 -14 l 1 -14 l 1 -8 q -5 -19 -4 -8 l -14 -19 l -14 -14 q -18 -22 -18 -14 l -26 -22 l -26 -19 q 334 892 1 59 q 356 944 345 944 q 407 963 379 963 m 158 -3 l 158 -8 l 160 -8 l 160 -3 l 158 -3 z "},":":{"ha":378,"x_min":-12,"x_max":408,"o":"m 296 642 q 408 540 365 642 l 408 517 l 258 395 l 240 395 l 146 484 l 146 489 q 281 642 146 563 l 296 642 m 119 242 q 258 135 189 242 l 198 75 q 100 0 127 0 q 7 60 64 37 q -7 75 7 75 l -12 79 l -12 88 q 105 237 -12 154 l 119 242 z "},";":{"ha":378,"x_min":-91,"x_max":433,"o":"m 291 622 q 433 544 365 622 l 433 534 q 330 372 433 509 l 305 358 l 276 377 l 252 372 l 242 392 q 198 377 220 377 l 163 412 l 159 441 q 276 622 204 622 l 291 622 m 183 182 q 296 118 296 168 q 212 -9 296 107 q 61 -229 75 -222 l 46 -229 l 46 -210 l 17 -220 l 7 -190 l 2 -190 q -42 -214 2 -205 q -62 -200 -62 -212 l -66 -205 l -71 -205 l -91 -190 q 90 142 -91 -138 q 168 177 117 177 l 183 182 z "},"<":{"ha":688,"x_min":59,"x_max":629,"o":"m 629 728 l 205 485 l 629 244 l 629 131 l 59 457 l 59 513 l 629 842 l 629 728 z "},"=":{"ha":688,"x_min":21,"x_max":678,"o":"m 339 652 l 342 649 l 346 649 l 388 652 l 399 649 l 433 652 l 618 652 q 657 646 624 646 l 661 642 l 661 638 l 650 635 l 650 631 l 675 628 l 675 621 l 661 614 l 625 614 l 633 593 q 643 586 643 593 l 640 583 q 664 568 664 574 l 650 565 l 650 562 l 678 558 l 678 551 q 227 513 341 529 q 161 568 196 513 l 161 586 q 241 646 161 646 l 245 642 l 339 652 m 126 439 l 126 436 l 151 439 l 482 436 l 493 439 l 507 436 l 597 436 l 601 432 l 605 432 q 591 422 605 422 l 591 418 l 633 418 l 633 411 l 584 397 l 587 394 l 587 391 l 576 380 l 559 380 l 559 373 l 587 373 l 587 366 l 570 366 l 570 362 q 597 352 597 362 l 594 349 l 594 345 q 615 334 615 345 q 507 324 597 324 l 493 320 l 493 324 l 482 320 l 479 324 l 461 320 l 60 310 q 21 376 21 347 l 21 394 q 126 439 21 439 z "},">":{"ha":688,"x_min":59,"x_max":629,"o":"m 59 842 l 629 513 l 629 457 l 59 131 l 59 244 l 483 485 l 59 728 l 59 842 z "},"?":{"ha":507,"x_min":-199,"x_max":695,"o":"m 321 1017 l 397 1017 q 692 804 595 1017 l 692 798 q 337 607 692 755 l 135 481 q -45 273 -45 330 l -24 197 l -56 191 l -56 186 q 47 71 47 113 l 47 55 q 3 0 47 0 q -133 93 -97 50 l -149 153 q -100 197 -149 197 l -100 202 l -172 284 q -188 311 -172 311 l -193 306 l -199 322 q 380 836 -199 568 l 446 863 l 446 869 l 430 869 q -35 688 258 869 l -56 683 q -177 798 -177 736 q 205 1000 -177 878 l 321 1017 m 684 208 l 684 197 l 695 197 l 695 208 l 684 208 z "},"@":{"ha":1369,"x_min":0,"x_max":1400,"o":"m 1002 976 l 1173 941 l 1194 947 q 1386 606 1386 808 l 1400 492 q 1080 81 1400 291 l 1059 81 l 1059 73 q 1101 59 1101 71 l 1095 38 l 1101 38 q 1123 24 1123 38 l 1123 16 l 1109 -5 l 1116 -26 l 1109 -26 l 1095 -41 l 1087 -41 l 1101 -62 l 1095 -69 l 1087 -69 l 1101 -97 l 995 -161 q 682 -239 995 -192 l 554 -247 q 220 -125 354 -247 q 50 102 97 -34 l 0 279 l 0 300 q 100 592 0 422 q 376 848 208 747 q 831 962 575 962 q 1002 976 831 972 m 370 606 q 831 755 609 755 q 1002 699 979 755 q 1017 642 1017 699 l 1031 621 l 1023 614 l 1023 606 l 1031 600 l 1031 592 q 988 528 1031 546 l 909 528 l 924 429 q 846 300 913 429 l 882 294 q 1223 543 1024 294 l 1251 642 l 1251 656 q 867 777 1251 758 q 391 627 618 777 l 370 606 m 341 592 q 178 286 178 462 l 171 237 q 298 38 226 38 q 512 -12 356 2 q 909 45 669 -12 l 909 52 q 718 180 806 52 q 455 94 588 94 q 292 230 374 94 l 249 379 q 341 578 249 483 l 349 585 l 349 592 l 341 592 m 441 343 l 448 343 q 675 471 595 380 l 675 486 l 668 486 q 441 343 570 470 z "},"A":{"ha":1044,"x_min":-1,"x_max":1357,"o":"m 610 986 q 810 889 773 986 q 861 547 831 803 l 867 541 q 884 501 870 501 l 1066 524 l 1066 513 l 1072 513 l 1163 518 l 1163 507 l 1123 496 l 1123 490 l 1163 490 l 1203 496 l 1203 484 q 1112 461 1145 461 l 1112 450 l 1141 456 q 1180 433 1180 444 l 1209 439 q 1323 416 1323 435 l 1317 410 l 1357 399 l 1357 387 q 1038 319 1280 347 l 935 302 q 1009 -92 1009 12 l 1009 -115 l 992 -132 l 986 -132 q 947 -115 967 -132 l 947 -132 l 935 -132 l 935 -121 l 918 -132 l 895 -115 l 838 -138 l 792 -92 q 707 245 764 -46 l 701 245 q 342 90 342 146 q 205 -86 319 76 q 142 -132 165 -132 l 130 -104 l 125 -109 l 119 -109 q 85 -64 85 -89 l 79 -69 l 68 -69 l 68 -58 q 22 -24 44 -58 q -1 -12 -1 -24 l -1 28 q 136 239 -1 92 q 325 507 195 336 l 519 849 l 558 964 q 610 986 589 986 m 564 433 l 564 427 q 661 461 661 452 l 644 553 q 564 433 629 546 m 1095 530 l 1106 530 l 1106 518 l 1095 518 l 1095 530 m 1101 490 l 1101 484 l 1112 484 l 1112 490 l 1101 490 z "},"B":{"ha":827,"x_min":-329,"x_max":1017,"o":"m 473 971 l 546 971 q 987 775 887 971 q 1017 696 1017 737 l 1017 690 q 736 475 1017 587 l 736 469 q 870 292 870 351 l 870 256 q -54 -185 870 107 l -182 -216 l -189 -210 l -182 -203 l -182 -185 q -213 -173 -213 -185 l -219 -149 l -157 -124 l -157 -118 l -163 -118 l -243 -130 l -243 -118 q -201 -100 -201 -112 l -207 -100 l -243 -112 l -250 -106 l -256 -106 l -292 -112 l -298 -112 l -298 -106 l -286 -87 l -286 -81 l -292 -81 l -323 -87 l -329 -81 l -329 -75 q -231 -26 -271 -26 l -243 35 q 185 720 -192 161 q 32 781 70 720 q -17 867 8 788 q 258 959 -17 941 l 473 971 m 442 616 q 754 745 627 680 q 613 763 754 763 l 528 763 q 442 616 442 638 m 130 121 l 130 115 q 576 323 444 219 l 460 323 q 234 280 234 323 l 130 121 z "},"C":{"ha":949,"x_min":-119,"x_max":1084,"o":"m 806 974 l 850 974 q 1084 879 1014 974 l 1084 822 q 996 701 1084 701 q 857 720 931 720 q 217 277 391 720 l 204 214 l 204 195 q 331 75 204 99 q 540 56 410 56 l 654 56 l 654 43 l 628 43 l 628 37 q 660 12 643 37 l 666 12 l 666 -7 l 597 -14 l 597 -20 l 609 -20 l 597 -58 l 609 -58 l 609 -71 l 597 -71 l 597 -77 q 622 -102 622 -77 l 635 -102 l 628 -96 l 628 -90 l 635 -83 l 673 -83 l 673 -96 l 679 -102 l 673 -109 l 654 -109 l 654 -115 l 666 -128 l 685 -128 l 679 -121 l 679 -115 l 698 -109 l 717 -115 q 274 -172 717 -172 q -119 100 -5 -172 l -119 182 q 280 809 -119 476 q 806 974 515 974 m 666 31 l 704 31 l 704 18 l 666 18 l 666 31 z "},"D":{"ha":1029,"x_min":-183,"x_max":1120,"o":"m 574 980 l 604 980 q 1038 839 836 980 q 1120 686 1120 760 q 774 182 1120 521 q 410 -30 592 48 q 151 -130 201 -91 l 87 -123 q -48 -176 -22 -176 l -54 -170 l -37 -141 l -42 -141 l -77 -153 l -83 -117 l -72 -94 l -77 -94 l -106 -106 l -113 -100 l -113 -94 l -106 -77 l -113 -77 l -136 -83 q -154 -59 -154 -83 q -183 -41 -183 -55 q -106 5 -157 -14 q 169 487 -6 82 q 275 763 275 730 q 111 903 168 763 q 574 980 111 953 m 316 193 q 814 633 814 426 q 597 804 814 770 q 533 699 554 804 l 316 193 z "},"E":{"ha":781,"x_min":-163,"x_max":978,"o":"m 804 991 q 827 968 804 968 l 827 957 l 809 957 l 809 951 q 838 939 838 951 l 838 933 l 815 933 q 850 916 815 916 l 850 904 l 832 904 l 832 899 l 902 899 l 955 869 l 949 863 l 949 858 q 978 846 978 858 q 762 800 978 825 q 484 718 689 800 l 419 590 l 425 590 q 606 608 456 602 l 617 590 l 600 584 l 600 578 q 646 567 646 578 l 617 555 l 617 549 l 629 549 l 623 532 q 669 485 623 503 l 669 479 l 664 473 l 664 468 q 693 456 693 468 l 693 450 q 326 357 693 433 q 210 182 281 357 l 629 252 l 629 241 l 635 241 l 664 247 q 693 218 671 218 l 693 200 q 664 182 679 200 l 652 182 l 652 177 l 687 177 l 687 165 l 658 165 l 664 159 l 664 153 l 658 148 q 751 119 744 148 l 745 113 q 774 95 774 109 q 425 8 723 62 q 76 -97 76 -51 q 24 -149 68 -127 l 18 -149 l -17 -120 l -29 -120 l -58 -126 q -116 -97 -58 -111 l -134 -102 l -140 -97 l -140 -91 l -134 -73 l -145 -73 l -151 -79 l -157 -79 l -163 -73 l -163 -68 q 268 910 -115 105 q 349 980 268 968 l 576 974 l 804 991 z "},"F":{"ha":732,"x_min":-271,"x_max":1096,"o":"m 929 995 q 975 969 929 985 q 1006 937 975 945 l 1006 930 l 1000 924 l 1000 918 q 1025 905 1025 918 l 1019 899 q 1096 834 1050 899 q 441 745 1096 808 q 358 642 376 745 q 320 546 350 642 l 326 546 l 493 558 q 538 520 522 520 l 538 488 l 551 469 l 551 463 l 532 463 l 532 456 l 538 456 l 576 463 l 615 450 l 615 443 l 608 437 l 608 430 q 647 411 647 422 q 198 276 570 349 q -52 -193 -14 -138 q -104 -212 -104 -193 l -110 -212 l -130 -199 l -123 -193 l -123 -167 l -136 -167 q -149 -186 -136 -186 q -181 -154 -155 -154 l -181 -160 q -200 -193 -185 -193 l -206 -186 l -213 -186 l -226 -199 l -252 -167 q -271 -147 -271 -167 q -72 353 -271 -32 q 121 886 121 739 q 217 976 172 976 l 320 950 q 929 995 665 995 z "},"G":{"ha":1003,"x_min":-119,"x_max":1107,"o":"m 850 979 l 870 979 q 1107 831 1041 979 q 1063 696 1092 696 l 1056 696 q 921 735 1016 696 l 793 748 q 202 459 442 748 q 99 157 99 319 q 234 67 99 67 q 465 119 315 67 l 465 125 l 458 125 l 273 112 q 221 157 273 130 l 227 163 l 227 170 l 189 170 l 189 183 l 227 189 l 227 195 l 176 202 l 176 215 l 195 215 l 195 221 l 163 221 l 163 228 l 176 247 q 131 260 131 247 q 921 439 131 302 q 1030 350 995 439 l 1037 330 q 947 189 1037 264 q 626 -68 947 126 q 330 -151 475 -151 l 273 -151 q -113 144 -16 -151 l -119 202 l -119 241 q 240 800 -119 473 q 850 979 506 979 z "},"H":{"ha":1071,"x_min":-135,"x_max":1236,"o":"m 366 1017 q 564 865 458 1017 q 468 642 564 811 l 411 515 l 424 515 l 811 617 q 995 998 898 840 l 1059 1017 q 1236 896 1129 1015 l 1236 858 q 1109 617 1236 812 q 1071 484 1071 520 l 1090 465 l 1090 452 l 1014 414 q 989 395 1014 395 l 989 389 l 995 382 l 995 376 q 976 338 984 376 q 931 268 960 338 l 925 268 l 919 274 l 912 274 q 849 211 912 221 l 855 204 l 855 191 q 836 172 836 191 l 823 172 l 817 147 l 823 141 l 823 128 l 817 128 l 798 134 l 798 115 l 792 115 l 798 109 l 798 102 q 728 -56 747 53 q 690 -138 728 -87 l 684 -138 l 677 -132 l 671 -132 l 652 -151 q 583 -132 652 -138 l 576 -106 l 570 -113 l 564 -113 q 545 -62 545 -90 q 652 268 545 57 l 684 344 l 677 344 l 227 230 q 201 191 212 191 l 195 198 l 189 198 q 100 1 144 148 l 18 -126 l 11 -126 l 11 -113 l -14 -132 l -103 -100 q -135 -68 -103 -68 l -135 -31 q -1 293 -135 42 l 5 325 q -14 363 -14 331 l -14 414 q 106 528 92 469 l 239 846 l 233 852 l 233 858 l 290 985 l 366 1017 z "},"I":{"ha":446,"x_min":-184,"x_max":559,"o":"m 347 978 l 385 978 q 559 878 497 978 l 559 853 q 441 641 559 836 l 166 73 q 91 -40 113 -26 l 85 -33 l 79 -33 l 66 -64 l 54 -64 l 66 -21 l -3 -134 l -9 -134 l -15 -127 l -15 -121 l -9 -115 l -9 -102 l -15 -102 l -40 -159 l -53 -159 l -53 -152 l -40 -121 l -140 -202 l -159 -190 l -153 -183 l -153 -165 l -172 -177 l -184 -165 q 266 903 -184 -83 q 347 978 293 978 m 227 165 l 227 155 l 233 155 l 233 165 l 227 165 z "},"J":{"ha":446,"x_min":-341,"x_max":813,"o":"m 687 1019 q 789 978 768 1019 q 813 941 813 978 q 585 412 813 873 q 254 -51 486 211 q -100 -183 115 -183 q -329 -20 -264 -183 q -341 46 -341 3 l -341 82 q -251 448 -332 278 l -239 448 q -185 370 -191 406 q -173 388 -173 370 l -161 388 l -161 346 q -149 376 -149 346 l -142 382 l -136 382 l -131 364 q -88 443 -111 364 l -64 448 q -47 412 -64 412 l -47 424 l -35 424 l -71 87 l -59 27 l -47 27 q 212 310 42 54 q 507 899 359 543 q 687 1019 507 993 z "},"K":{"ha":937,"x_min":-272,"x_max":1100,"o":"m 391 1015 l 408 1015 q 515 938 445 1015 l 532 890 l 532 879 q 450 719 532 833 l 455 719 l 987 991 l 994 991 q 976 979 994 979 l 976 973 l 987 973 l 1029 991 l 1035 985 l 1035 979 l 1041 985 l 1070 985 q 1053 973 1070 973 l 1059 956 l 1100 962 l 1023 890 l 1005 884 l 1005 879 l 1070 890 q 1023 861 1070 880 l 1035 849 l 1041 855 l 1046 855 l 1065 849 l 1065 843 l 1053 825 q 1082 802 1082 825 l 621 536 l 621 530 q 728 -20 686 283 q 745 -91 739 -20 l 674 -121 l 668 -115 l 663 -115 l 597 -144 q 461 75 461 -43 l 385 394 l 378 394 q 172 228 179 286 l 77 80 q 24 -3 62 80 l 12 -3 l 12 3 l 18 27 l 18 33 l 12 33 l 6 16 l 0 21 l -6 21 l -35 -14 l -35 -20 l -30 -20 l -6 16 l 0 16 l 0 3 q -47 -32 -9 -32 q -113 -203 -110 -155 l -130 -203 q -154 -180 -130 -180 l -189 -168 l -195 -162 l -201 -162 l -231 -168 q -254 -144 -231 -144 l -272 -103 q 154 749 -183 157 q 391 1015 314 1000 m 18 57 l 30 57 l 41 80 l 41 86 l 35 86 q 18 57 25 86 z "},"L":{"ha":765,"x_min":-50,"x_max":837,"o":"m 499 1067 l 535 1067 q 692 916 692 1010 q 366 235 652 850 l 318 150 l 692 174 l 741 168 l 777 168 l 777 156 l 759 156 l 759 138 l 795 138 l 795 125 l 734 96 l 747 60 l 783 60 l 837 5 q 481 -61 837 -12 q 71 -164 330 -92 l 64 -164 q -50 -67 31 -164 l -50 -61 l -44 -56 l -50 -50 l -50 11 q 4 83 -50 41 q 414 977 289 610 l 408 995 q 499 1067 446 1067 z "},"M":{"ha":1219,"x_min":-101,"x_max":1329,"o":"m 455 1022 l 486 1022 q 608 930 555 1022 l 595 686 q 626 521 595 583 q 749 644 639 522 q 993 882 769 650 q 1164 998 1077 998 l 1207 1004 q 1274 967 1267 990 q 1329 918 1288 967 l 1329 906 q 1152 454 1329 844 q 1072 307 1091 307 l 1078 301 l 1078 295 l 999 136 q 901 -66 988 136 l 859 -121 l 816 -121 l 816 -109 l 791 -121 q 749 -96 791 -107 l 736 -109 q 712 -78 720 -106 q 688 -66 688 -78 l 688 -23 q 871 435 688 96 q 688 216 775 347 q 632 179 667 216 l 626 179 q 504 234 561 224 q 394 484 442 276 l 388 484 q 94 -151 121 -127 l 82 -151 l 52 -133 l 33 -139 l 27 -133 l 21 -139 l 9 -115 l -3 -127 l -9 -121 l -64 -133 q -101 -96 -78 -100 l -101 -72 q 248 760 -101 75 q 382 1010 330 1010 l 455 1022 z "},"N":{"ha":1054,"x_min":-159,"x_max":1195,"o":"m 1018 1017 l 1061 1017 q 1195 944 1142 1017 l 1195 926 l 963 328 q 792 -117 878 170 l 774 -136 l 755 -136 l 731 -117 l 725 -123 l 694 -123 l 664 -105 l 603 -111 l 554 -56 l 554 -14 q 597 115 554 14 l 439 492 l 390 639 l 384 639 l 140 127 q 79 -75 97 39 l 85 -81 l 85 -87 q 60 -136 75 -136 l 42 -136 l -19 -99 l -31 -99 l -56 -105 l -74 -99 l -86 -111 l -92 -105 l -98 -105 l -104 -111 l -159 -38 l -159 -14 q 127 657 -159 96 l 274 968 q 481 1005 307 995 q 566 944 522 1005 l 566 938 q 725 426 566 765 q 914 926 810 572 q 987 1005 935 1005 q 1018 1017 987 1016 z "},"O":{"ha":1095,"x_min":6,"x_max":1082,"o":"m 886 1015 l 893 1015 q 1023 890 958 1015 l 1030 884 l 1030 853 q 932 803 1030 824 l 932 797 q 1082 449 1082 611 l 1082 418 q 736 -98 1082 16 q 541 -130 618 -130 l 469 -130 q 32 181 165 -130 q 6 293 13 185 l 6 337 q 443 884 6 638 q 886 1015 719 1015 m 248 281 l 248 275 q 385 151 248 167 l 437 151 q 828 393 648 151 q 867 561 856 456 q 848 667 861 648 l 854 685 q 828 779 836 779 q 385 530 636 753 q 248 281 248 397 z "},"P":{"ha":760,"x_min":-299,"x_max":994,"o":"m 663 1036 q 957 882 875 1036 l 994 729 q 460 368 994 634 q 172 220 184 249 q 117 141 130 141 q 62 68 87 117 l 50 68 l 50 62 l 44 68 l 38 68 q 1 -12 25 68 l -11 -12 l -5 -18 l -5 -24 q -97 -172 -24 -24 q -170 -245 -115 -245 l -170 -233 l -176 -233 l -201 -239 l -208 -233 l -214 -233 l -232 -239 l -244 -227 l -256 -239 l -299 -190 l -299 -178 q -146 202 -299 -117 l -164 208 l -158 214 l -158 220 l -189 245 l -214 239 l -226 258 l -220 264 l -220 270 q -256 288 -256 270 q -18 429 -181 348 l 105 680 l 99 680 q -42 821 26 680 l -42 876 q 216 980 8 940 q 663 1036 334 1005 m 326 582 l 332 582 q 699 809 531 675 l 699 815 l 693 815 q 442 778 442 806 l 326 582 z "},"Q":{"ha":1095,"x_min":-51,"x_max":1158,"o":"m 644 1010 l 675 1010 q 813 885 782 998 q 782 810 813 850 q 951 741 930 769 l 995 703 l 1001 703 l 989 722 l 989 728 l 995 728 q 1107 553 1107 628 q 1158 410 1158 491 l 1158 366 q 932 2 1158 151 l 901 -10 q 1020 -211 1020 -115 l 1020 -229 l 1014 -235 l 1001 -235 l 989 -223 l 982 -229 l 951 -229 q 738 -98 921 -229 q 431 -142 631 -142 q -39 190 107 -142 l -51 284 l -51 340 q 362 916 -51 611 q 644 1010 537 1010 m 149 240 q 375 90 149 113 l 387 90 l 532 109 q 437 328 437 261 l 444 334 l 450 334 l 456 328 q 488 378 456 360 l 513 366 l 532 372 q 720 190 648 292 l 726 190 q 951 416 888 285 q 976 522 966 522 q 807 735 976 588 q 763 798 807 761 q 356 572 502 695 q 149 240 155 358 z "},"R":{"ha":870,"x_min":-180,"x_max":1078,"o":"m 553 1033 l 606 1033 q 1072 773 1001 1033 l 1078 737 l 1078 720 q 724 460 1078 642 q 812 -66 812 83 l 819 -72 l 819 -77 l 812 -96 l 819 -149 l 812 -155 l 801 -155 q 789 -131 801 -131 q 777 -149 789 -149 l 765 -149 l 760 -142 l 753 -142 q 736 -166 745 -166 l 706 -160 l 694 -172 q 665 -142 690 -142 q 500 366 570 77 l 234 277 q 175 182 197 193 l 169 153 l 151 153 l 175 218 l 175 224 l 169 224 l 139 159 l 151 146 q 62 23 129 146 q 27 -54 54 22 q -32 -172 15 -54 l -38 -172 q -97 -125 -38 -145 l -109 -137 q -127 -125 -109 -125 l -144 -131 q -180 -96 -157 -99 l -180 -77 q 145 714 -180 66 q 21 850 21 798 l 21 879 q 239 985 26 910 q 553 1033 269 1033 m 363 566 l 376 566 q 806 808 730 718 l 806 814 l 688 820 l 677 820 q 452 767 452 820 q 363 566 382 589 z "},"S":{"ha":736,"x_min":-407,"x_max":949,"o":"m 848 1043 l 861 1043 q 937 999 889 1043 l 943 993 l 949 993 l 943 968 l 949 892 q 880 791 939 791 l 842 791 q 224 621 595 791 l 224 608 l 230 608 q 734 482 688 570 q 779 393 779 456 q 728 186 762 186 q 413 16 586 79 q -300 -186 153 -73 l -306 -180 l -306 -174 l -262 -155 l -262 -142 l -331 -155 l -331 -149 q -300 -130 -331 -134 l -300 -117 l -319 -117 l -319 -104 l -306 -104 l -306 -98 l -344 -85 l -338 -79 l -338 -60 q -363 -41 -363 -60 l -369 -47 l -382 -47 l -382 -41 l -376 -35 l -376 -29 l -388 -29 q -407 -16 -388 -16 l -407 -10 q 104 167 -407 22 q 495 324 443 284 q -41 438 -41 359 q -104 557 -104 479 q -28 728 -104 630 q 848 1043 433 1043 m -281 -79 l -281 -85 l -268 -85 l -268 -79 l -281 -79 z "},"T":{"ha":916,"x_min":-140,"x_max":1019,"o":"m 667 1048 l 788 1042 l 909 1042 q 961 1009 945 1042 l 954 1003 q 986 984 986 1001 l 986 977 l 916 977 l 916 971 l 941 971 l 941 958 l 929 958 l 935 951 l 929 945 l 929 932 l 961 926 l 961 920 l 954 913 l 954 907 q 993 856 993 907 q 1019 837 1019 852 l 1019 824 l 641 779 q 564 658 593 779 q 161 -180 227 0 q 97 -219 122 -219 l 71 -193 q 33 -161 33 -193 l 26 -168 l 20 -168 q -43 -111 19 -152 l -63 -78 q 244 606 -63 51 l 296 728 l 58 690 q -121 811 -76 690 l -140 888 l -140 901 q -89 977 -140 941 l -5 977 q 667 1048 195 977 z "},"U":{"ha":1018,"x_min":-7,"x_max":1029,"o":"m 342 1013 l 372 1013 q 526 913 467 1013 l 532 889 q 401 593 532 840 q 265 102 265 325 l 265 84 q 514 327 418 184 q 781 741 739 614 l 816 818 q 833 836 833 818 l 840 842 l 852 842 l 852 818 l 857 818 q 887 918 873 918 l 893 918 l 893 895 l 899 895 l 899 942 l 911 942 l 911 924 q 964 1013 932 935 l 970 1013 q 1029 842 1029 958 q 526 -46 1029 451 q 307 -106 430 -106 q 5 60 80 -106 l -7 132 l -7 161 q 88 575 -7 394 l 242 937 q 342 1013 292 1013 z "},"V":{"ha":987,"x_min":-31,"x_max":1178,"o":"m 1133 1022 l 1145 989 l 1152 989 l 1158 996 l 1165 996 l 1171 989 l 1165 983 l 1165 977 l 1178 964 q 919 634 1178 939 q 447 -32 560 172 q 357 -135 419 -135 l 331 -135 q 143 -52 221 -135 l 156 7 l 20 718 l -31 958 l -31 964 q 46 1015 1 1015 q 214 951 132 1015 q 279 783 279 904 q 357 317 288 781 l 363 317 l 518 517 q 589 608 582 571 l 596 608 l 602 602 l 609 602 l 667 660 l 673 654 l 673 660 l 667 680 l 686 692 l 693 692 l 699 660 l 712 673 l 706 699 l 712 699 l 706 718 q 745 770 724 761 l 751 770 l 758 764 l 764 764 l 777 777 l 777 764 l 770 757 l 770 751 l 777 751 l 848 841 l 854 841 l 854 835 l 809 777 l 809 738 l 880 815 l 887 808 l 893 808 l 893 821 l 900 821 l 887 854 l 893 861 l 900 861 l 906 854 l 913 854 l 977 905 l 984 899 l 984 892 l 951 861 l 951 854 l 964 854 q 1133 1022 1107 1020 z "},"W":{"ha":1377,"x_min":-28,"x_max":1423,"o":"m 1252 1097 l 1258 1090 l 1258 1084 l 1276 1090 q 1301 1066 1301 1084 l 1308 1066 l 1314 1084 q 1399 1054 1399 1066 l 1393 1035 l 1399 1041 l 1405 1041 l 1423 1035 l 1423 1029 q 1148 557 1423 984 l 848 37 l 799 -68 q 713 -104 750 -104 q 559 -37 559 -71 q 474 257 474 37 q 315 18 375 148 q 186 -98 271 -98 q 113 -74 146 -98 l 106 -80 l 100 -80 q 64 -50 89 -80 q -16 245 19 -50 q -28 606 -28 328 l -16 931 q 94 998 -16 982 q 229 925 175 985 l 241 888 l 241 845 l 216 612 l 216 527 l 222 490 l 216 459 l 222 453 l 216 422 l 216 398 l 222 374 l 216 349 l 216 318 l 462 600 q 492 747 476 600 l 529 760 l 541 772 l 584 766 l 603 766 l 646 772 l 652 766 l 652 760 l 646 753 l 676 747 l 682 747 l 701 760 l 707 760 l 713 753 l 719 760 l 749 760 l 774 729 q 793 717 793 729 l 725 551 l 713 477 l 713 368 l 707 361 l 713 300 l 719 300 q 946 625 815 457 q 983 667 958 667 l 977 673 l 977 680 q 1124 895 1097 880 q 1197 1041 1124 919 q 1252 1097 1197 1075 m 1099 821 l 1099 814 l 1111 827 l 1111 833 l 1099 821 m 1056 766 l 1056 747 l 1062 747 l 1062 766 l 1056 766 z "},"X":{"ha":916,"x_min":-303,"x_max":1017,"o":"m 847 1000 l 853 1000 q 897 987 897 998 l 904 994 l 910 994 q 1017 874 1017 924 q 791 686 1013 854 l 483 397 q 646 -37 646 93 q 621 -138 646 -71 l 608 -138 l 564 -144 l 558 -138 l 558 -132 l 483 -157 l 476 -125 l 470 -132 l 464 -132 q 389 63 456 -132 l 294 233 q 250 183 250 195 l 199 164 l 206 157 l 206 151 l 5 -50 q -90 -170 -37 -88 l -134 -182 q -171 -157 -171 -169 l -178 -163 l -190 -163 l -215 -144 l -222 -151 q -303 -81 -276 -117 l -303 -62 q 193 447 -303 14 l 199 453 l 199 459 q 137 793 168 563 q 206 981 137 914 l 275 981 q 414 905 366 981 l 414 868 l 401 780 l 407 774 l 401 742 l 407 705 l 401 705 l 414 654 l 772 975 q 847 1000 814 1000 z "},"Y":{"ha":836,"x_min":-271,"x_max":1069,"o":"m 926 1006 l 951 1006 q 1069 920 997 1006 l 1069 895 q 225 119 319 165 q 194 94 225 94 q 58 -54 194 75 q -54 -210 -34 -137 l -85 -216 q -147 -191 -121 -216 l -159 -203 q -228 -166 -168 -166 l -271 -117 l -271 -104 q 188 374 -271 -7 q 312 516 312 500 q 76 913 76 752 l 76 951 q 182 987 108 987 l 206 987 q 380 814 321 987 q 479 646 380 751 q 795 963 541 689 q 926 1006 869 1006 z "},"Z":{"ha":762,"x_min":-233,"x_max":1042,"o":"m 870 1000 l 896 1000 q 1042 841 994 1000 l 1042 835 q 851 651 1042 781 q 256 132 379 205 l 256 125 l 363 132 l 610 132 l 826 125 l 832 132 l 839 132 l 845 125 l 877 132 l 940 132 l 953 119 l 946 100 l 953 100 q 978 87 978 100 l 959 68 l 978 49 l 978 43 l 965 5 l 965 -2 q 984 -21 984 -2 l 1010 -33 q 864 -110 1010 -110 l 845 -103 l 813 -110 l 661 -103 l 547 -103 q -43 -192 182 -103 l -87 -192 q -233 -14 -233 -140 l -233 11 q -138 62 -233 40 q 224 423 -115 150 q 553 702 455 604 l 547 702 q 300 670 376 670 q 122 810 173 670 l 122 848 q 578 956 163 956 q 870 1000 793 1000 z "},"[":{"ha":514,"x_min":0,"x_max":0,"o":""},"\\":{"ha":386,"x_min":0,"x_max":0,"o":""},"]":{"ha":514,"x_min":0,"x_max":0,"o":""},"^":{"ha":688,"x_min":0,"x_max":0,"o":""},"_":{"ha":694,"x_min":0,"x_max":694,"o":"m 0 -68 l 694 -68 l 694 -109 l 0 -109 l 0 -68 z "},"`":{"ha":694,"x_min":201,"x_max":548,"o":"m 306 1257 q 548 1084 461 1174 l 548 1080 l 537 1065 l 534 1065 l 530 1069 q 516 1052 530 1057 l 505 1052 l 503 1055 l 496 1048 l 485 1055 l 485 1044 q 464 1030 485 1030 l 464 1027 l 467 1023 l 467 1013 l 460 1013 q 317 1101 444 1013 q 201 1186 201 1158 l 201 1193 q 225 1218 216 1217 q 306 1257 225 1241 z "},"a":{"ha":1044,"x_min":-1,"x_max":1357,"o":"m 610 986 q 810 889 773 986 q 861 547 831 803 l 867 541 q 884 501 870 501 l 1066 524 l 1066 513 l 1072 513 l 1163 518 l 1163 507 l 1123 496 l 1123 490 l 1163 490 l 1203 496 l 1203 484 q 1112 461 1145 461 l 1112 450 l 1141 456 q 1180 433 1180 444 l 1209 439 q 1323 416 1323 435 l 1317 410 l 1357 399 l 1357 387 q 1038 319 1280 347 l 935 302 q 1009 -92 1009 12 l 1009 -115 l 992 -132 l 986 -132 q 947 -115 967 -132 l 947 -132 l 935 -132 l 935 -121 l 918 -132 l 895 -115 l 838 -138 l 792 -92 q 707 245 764 -46 l 701 245 q 342 90 342 146 q 205 -86 319 76 q 142 -132 165 -132 l 130 -104 l 125 -109 l 119 -109 q 85 -64 85 -89 l 79 -69 l 68 -69 l 68 -58 q 22 -24 44 -58 q -1 -12 -1 -24 l -1 28 q 136 239 -1 92 q 325 507 195 336 l 519 849 l 558 964 q 610 986 589 986 m 564 433 l 564 427 q 661 461 661 452 l 644 553 q 564 433 629 546 m 1095 530 l 1106 530 l 1106 518 l 1095 518 l 1095 530 m 1101 490 l 1101 484 l 1112 484 l 1112 490 l 1101 490 z "},"b":{"ha":827,"x_min":-329,"x_max":1017,"o":"m 473 971 l 546 971 q 987 775 887 971 q 1017 696 1017 737 l 1017 690 q 736 475 1017 587 l 736 469 q 870 292 870 351 l 870 256 q -54 -185 870 107 l -182 -216 l -189 -210 l -182 -203 l -182 -185 q -213 -173 -213 -185 l -219 -149 l -157 -124 l -157 -118 l -163 -118 l -243 -130 l -243 -118 q -201 -100 -201 -112 l -207 -100 l -243 -112 l -250 -106 l -256 -106 l -292 -112 l -298 -112 l -298 -106 l -286 -87 l -286 -81 l -292 -81 l -323 -87 l -329 -81 l -329 -75 q -231 -26 -271 -26 l -243 35 q 185 720 -192 161 q 32 781 70 720 q -17 867 8 788 q 258 959 -17 941 l 473 971 m 442 616 q 754 745 627 680 q 613 763 754 763 l 528 763 q 442 616 442 638 m 130 121 l 130 115 q 576 323 444 219 l 460 323 q 234 280 234 323 l 130 121 z "},"c":{"ha":949,"x_min":-119,"x_max":1084,"o":"m 806 974 l 850 974 q 1084 879 1014 974 l 1084 822 q 996 701 1084 701 q 857 720 931 720 q 217 277 391 720 l 204 214 l 204 195 q 331 75 204 99 q 540 56 410 56 l 654 56 l 654 43 l 628 43 l 628 37 q 660 12 643 37 l 666 12 l 666 -7 l 597 -14 l 597 -20 l 609 -20 l 597 -58 l 609 -58 l 609 -71 l 597 -71 l 597 -77 q 622 -102 622 -77 l 635 -102 l 628 -96 l 628 -90 l 635 -83 l 673 -83 l 673 -96 l 679 -102 l 673 -109 l 654 -109 l 654 -115 l 666 -128 l 685 -128 l 679 -121 l 679 -115 l 698 -109 l 717 -115 q 274 -172 717 -172 q -119 100 -5 -172 l -119 182 q 280 809 -119 476 q 806 974 515 974 m 666 31 l 704 31 l 704 18 l 666 18 l 666 31 z "},"d":{"ha":1029,"x_min":-183,"x_max":1120,"o":"m 574 980 l 604 980 q 1038 839 836 980 q 1120 686 1120 760 q 774 182 1120 521 q 410 -30 592 48 q 151 -130 201 -91 l 87 -123 q -48 -176 -22 -176 l -54 -170 l -37 -141 l -42 -141 l -77 -153 l -83 -117 l -72 -94 l -77 -94 l -106 -106 l -113 -100 l -113 -94 l -106 -77 l -113 -77 l -136 -83 q -154 -59 -154 -83 q -183 -41 -183 -55 q -106 5 -157 -14 q 169 487 -6 82 q 275 763 275 730 q 111 903 168 763 q 574 980 111 953 m 316 193 q 814 633 814 426 q 597 804 814 770 q 533 699 554 804 l 316 193 z "},"e":{"ha":781,"x_min":-163,"x_max":978,"o":"m 804 991 q 827 968 804 968 l 827 957 l 809 957 l 809 951 q 838 939 838 951 l 838 933 l 815 933 q 850 916 815 916 l 850 904 l 832 904 l 832 899 l 902 899 l 955 869 l 949 863 l 949 858 q 978 846 978 858 q 762 800 978 825 q 484 718 689 800 l 419 590 l 425 590 q 606 608 456 602 l 617 590 l 600 584 l 600 578 q 646 567 646 578 l 617 555 l 617 549 l 629 549 l 623 532 q 669 485 623 503 l 669 479 l 664 473 l 664 468 q 693 456 693 468 l 693 450 q 326 357 693 433 q 210 182 281 357 l 629 252 l 629 241 l 635 241 l 664 247 q 693 218 671 218 l 693 200 q 664 182 679 200 l 652 182 l 652 177 l 687 177 l 687 165 l 658 165 l 664 159 l 664 153 l 658 148 q 751 119 744 148 l 745 113 q 774 95 774 109 q 425 8 723 62 q 76 -97 76 -51 q 24 -149 68 -127 l 18 -149 l -17 -120 l -29 -120 l -58 -126 q -116 -97 -58 -111 l -134 -102 l -140 -97 l -140 -91 l -134 -73 l -145 -73 l -151 -79 l -157 -79 l -163 -73 l -163 -68 q 268 910 -115 105 q 349 980 268 968 l 576 974 l 804 991 z "},"f":{"ha":732,"x_min":-271,"x_max":1096,"o":"m 929 995 q 975 969 929 985 q 1006 937 975 945 l 1006 930 l 1000 924 l 1000 918 q 1025 905 1025 918 l 1019 899 q 1096 834 1050 899 q 441 745 1096 808 q 358 642 376 745 q 320 546 350 642 l 326 546 l 493 558 q 538 520 522 520 l 538 488 l 551 469 l 551 463 l 532 463 l 532 456 l 538 456 l 576 463 l 615 450 l 615 443 l 608 437 l 608 430 q 647 411 647 422 q 198 276 570 349 q -52 -193 -14 -138 q -104 -212 -104 -193 l -110 -212 l -130 -199 l -123 -193 l -123 -167 l -136 -167 q -149 -186 -136 -186 q -181 -154 -155 -154 l -181 -160 q -200 -193 -185 -193 l -206 -186 l -213 -186 l -226 -199 l -252 -167 q -271 -147 -271 -167 q -72 353 -271 -32 q 121 886 121 739 q 217 976 172 976 l 320 950 q 929 995 665 995 z "},"g":{"ha":1003,"x_min":-119,"x_max":1107,"o":"m 850 979 l 870 979 q 1107 831 1041 979 q 1063 696 1092 696 l 1056 696 q 921 735 1016 696 l 793 748 q 202 459 442 748 q 99 157 99 319 q 234 67 99 67 q 465 119 315 67 l 465 125 l 458 125 l 273 112 q 221 157 273 130 l 227 163 l 227 170 l 189 170 l 189 183 l 227 189 l 227 195 l 176 202 l 176 215 l 195 215 l 195 221 l 163 221 l 163 228 l 176 247 q 131 260 131 247 q 921 439 131 302 q 1030 350 995 439 l 1037 330 q 947 189 1037 264 q 626 -68 947 126 q 330 -151 475 -151 l 273 -151 q -113 144 -16 -151 l -119 202 l -119 241 q 240 800 -119 473 q 850 979 506 979 z "},"h":{"ha":1071,"x_min":-135,"x_max":1236,"o":"m 366 1017 q 564 865 458 1017 q 468 642 564 811 l 411 515 l 424 515 l 811 617 q 995 998 898 840 l 1059 1017 q 1236 896 1129 1015 l 1236 858 q 1109 617 1236 812 q 1071 484 1071 520 l 1090 465 l 1090 452 l 1014 414 q 989 395 1014 395 l 989 389 l 995 382 l 995 376 q 976 338 984 376 q 931 268 960 338 l 925 268 l 919 274 l 912 274 q 849 211 912 221 l 855 204 l 855 191 q 836 172 836 191 l 823 172 l 817 147 l 823 141 l 823 128 l 817 128 l 798 134 l 798 115 l 792 115 l 798 109 l 798 102 q 728 -56 747 53 q 690 -138 728 -87 l 684 -138 l 677 -132 l 671 -132 l 652 -151 q 583 -132 652 -138 l 576 -106 l 570 -113 l 564 -113 q 545 -62 545 -90 q 652 268 545 57 l 684 344 l 677 344 l 227 230 q 201 191 212 191 l 195 198 l 189 198 q 100 1 144 148 l 18 -126 l 11 -126 l 11 -113 l -14 -132 l -103 -100 q -135 -68 -103 -68 l -135 -31 q -1 293 -135 42 l 5 325 q -14 363 -14 331 l -14 414 q 106 528 92 469 l 239 846 l 233 852 l 233 858 l 290 985 l 366 1017 z "},"i":{"ha":446,"x_min":-184,"x_max":559,"o":"m 347 978 l 385 978 q 559 878 497 978 l 559 853 q 441 641 559 836 l 166 73 q 91 -40 113 -26 l 85 -33 l 79 -33 l 66 -64 l 54 -64 l 66 -21 l -3 -134 l -9 -134 l -15 -127 l -15 -121 l -9 -115 l -9 -102 l -15 -102 l -40 -159 l -53 -159 l -53 -152 l -40 -121 l -140 -202 l -159 -190 l -153 -183 l -153 -165 l -172 -177 l -184 -165 q 266 903 -184 -83 q 347 978 293 978 m 227 165 l 227 155 l 233 155 l 233 165 l 227 165 z "},"j":{"ha":446,"x_min":-341,"x_max":813,"o":"m 687 1019 q 789 978 768 1019 q 813 941 813 978 q 585 412 813 873 q 254 -51 486 211 q -100 -183 115 -183 q -329 -20 -264 -183 q -341 46 -341 3 l -341 82 q -251 448 -332 278 l -239 448 q -185 370 -191 406 q -173 388 -173 370 l -161 388 l -161 346 q -149 376 -149 346 l -142 382 l -136 382 l -131 364 q -88 443 -111 364 l -64 448 q -47 412 -64 412 l -47 424 l -35 424 l -71 87 l -59 27 l -47 27 q 212 310 42 54 q 507 899 359 543 q 687 1019 507 993 z "},"k":{"ha":937,"x_min":-272,"x_max":1100,"o":"m 391 1015 l 408 1015 q 515 938 445 1015 l 532 890 l 532 879 q 450 719 532 833 l 455 719 l 987 991 l 994 991 q 976 979 994 979 l 976 973 l 987 973 l 1029 991 l 1035 985 l 1035 979 l 1041 985 l 1070 985 q 1053 973 1070 973 l 1059 956 l 1100 962 l 1023 890 l 1005 884 l 1005 879 l 1070 890 q 1023 861 1070 880 l 1035 849 l 1041 855 l 1046 855 l 1065 849 l 1065 843 l 1053 825 q 1082 802 1082 825 l 621 536 l 621 530 q 728 -20 686 283 q 745 -91 739 -20 l 674 -121 l 668 -115 l 663 -115 l 597 -144 q 461 75 461 -43 l 385 394 l 378 394 q 172 228 179 286 l 77 80 q 24 -3 62 80 l 12 -3 l 12 3 l 18 27 l 18 33 l 12 33 l 6 16 l 0 21 l -6 21 l -35 -14 l -35 -20 l -30 -20 l -6 16 l 0 16 l 0 3 q -47 -32 -9 -32 q -113 -203 -110 -155 l -130 -203 q -154 -180 -130 -180 l -189 -168 l -195 -162 l -201 -162 l -231 -168 q -254 -144 -231 -144 l -272 -103 q 154 749 -183 157 q 391 1015 314 1000 m 18 57 l 30 57 l 41 80 l 41 86 l 35 86 q 18 57 25 86 z "},"l":{"ha":765,"x_min":-50,"x_max":837,"o":"m 499 1067 l 535 1067 q 692 916 692 1010 q 366 235 652 850 l 318 150 l 692 174 l 741 168 l 777 168 l 777 156 l 759 156 l 759 138 l 795 138 l 795 125 l 734 96 l 747 60 l 783 60 l 837 5 q 481 -61 837 -12 q 71 -164 330 -92 l 64 -164 q -50 -67 31 -164 l -50 -61 l -44 -56 l -50 -50 l -50 11 q 4 83 -50 41 q 414 977 289 610 l 408 995 q 499 1067 446 1067 z "},"m":{"ha":1219,"x_min":-101,"x_max":1329,"o":"m 455 1022 l 486 1022 q 608 930 555 1022 l 595 686 q 626 521 595 583 q 749 644 639 522 q 993 882 769 650 q 1164 998 1077 998 l 1207 1004 q 1274 967 1267 990 q 1329 918 1288 967 l 1329 906 q 1152 454 1329 844 q 1072 307 1091 307 l 1078 301 l 1078 295 l 999 136 q 901 -66 988 136 l 859 -121 l 816 -121 l 816 -109 l 791 -121 q 749 -96 791 -107 l 736 -109 q 712 -78 720 -106 q 688 -66 688 -78 l 688 -23 q 871 435 688 96 q 688 216 775 347 q 632 179 667 216 l 626 179 q 504 234 561 224 q 394 484 442 276 l 388 484 q 94 -151 121 -127 l 82 -151 l 52 -133 l 33 -139 l 27 -133 l 21 -139 l 9 -115 l -3 -127 l -9 -121 l -64 -133 q -101 -96 -78 -100 l -101 -72 q 248 760 -101 75 q 382 1010 330 1010 l 455 1022 z "},"n":{"ha":1054,"x_min":-159,"x_max":1195,"o":"m 1018 1017 l 1061 1017 q 1195 944 1142 1017 l 1195 926 l 963 328 q 792 -117 878 170 l 774 -136 l 755 -136 l 731 -117 l 725 -123 l 694 -123 l 664 -105 l 603 -111 l 554 -56 l 554 -14 q 597 115 554 14 l 439 492 l 390 639 l 384 639 l 140 127 q 79 -75 97 39 l 85 -81 l 85 -87 q 60 -136 75 -136 l 42 -136 l -19 -99 l -31 -99 l -56 -105 l -74 -99 l -86 -111 l -92 -105 l -98 -105 l -104 -111 l -159 -38 l -159 -14 q 127 657 -159 96 l 274 968 q 481 1005 307 995 q 566 944 522 1005 l 566 938 q 725 426 566 765 q 914 926 810 572 q 987 1005 935 1005 q 1018 1017 987 1016 z "},"o":{"ha":1095,"x_min":6,"x_max":1082,"o":"m 886 1015 l 893 1015 q 1023 890 958 1015 l 1030 884 l 1030 853 q 932 803 1030 824 l 932 797 q 1082 449 1082 611 l 1082 418 q 736 -98 1082 16 q 541 -130 618 -130 l 469 -130 q 32 181 165 -130 q 6 293 13 185 l 6 337 q 443 884 6 638 q 886 1015 719 1015 m 248 281 l 248 275 q 385 151 248 167 l 437 151 q 828 393 648 151 q 867 561 856 456 q 848 667 861 648 l 854 685 q 828 779 836 779 q 385 530 636 753 q 248 281 248 397 z "},"p":{"ha":760,"x_min":-299,"x_max":994,"o":"m 663 1036 q 957 882 875 1036 l 994 729 q 460 368 994 634 q 172 220 184 249 q 117 141 130 141 q 62 68 87 117 l 50 68 l 50 62 l 44 68 l 38 68 q 1 -12 25 68 l -11 -12 l -5 -18 l -5 -24 q -97 -172 -24 -24 q -170 -245 -115 -245 l -170 -233 l -176 -233 l -201 -239 l -208 -233 l -214 -233 l -232 -239 l -244 -227 l -256 -239 l -299 -190 l -299 -178 q -146 202 -299 -117 l -164 208 l -158 214 l -158 220 l -189 245 l -214 239 l -226 258 l -220 264 l -220 270 q -256 288 -256 270 q -18 429 -181 348 l 105 680 l 99 680 q -42 821 26 680 l -42 876 q 216 980 8 940 q 663 1036 334 1005 m 326 582 l 332 582 q 699 809 531 675 l 699 815 l 693 815 q 442 778 442 806 l 326 582 z "},"q":{"ha":1095,"x_min":-51,"x_max":1158,"o":"m 644 1010 l 675 1010 q 813 885 782 998 q 782 810 813 850 q 951 741 930 769 l 995 703 l 1001 703 l 989 722 l 989 728 l 995 728 q 1107 553 1107 628 q 1158 410 1158 491 l 1158 366 q 932 2 1158 151 l 901 -10 q 1020 -211 1020 -115 l 1020 -229 l 1014 -235 l 1001 -235 l 989 -223 l 982 -229 l 951 -229 q 738 -98 921 -229 q 431 -142 631 -142 q -39 190 107 -142 l -51 284 l -51 340 q 362 916 -51 611 q 644 1010 537 1010 m 149 240 q 375 90 149 113 l 387 90 l 532 109 q 437 328 437 261 l 444 334 l 450 334 l 456 328 q 488 378 456 360 l 513 366 l 532 372 q 720 190 648 292 l 726 190 q 951 416 888 285 q 976 522 966 522 q 807 735 976 588 q 763 798 807 761 q 356 572 502 695 q 149 240 155 358 z "},"r":{"ha":870,"x_min":-180,"x_max":1078,"o":"m 553 1033 l 606 1033 q 1072 773 1001 1033 l 1078 737 l 1078 720 q 724 460 1078 642 q 812 -66 812 83 l 819 -72 l 819 -77 l 812 -96 l 819 -149 l 812 -155 l 801 -155 q 789 -131 801 -131 q 777 -149 789 -149 l 765 -149 l 760 -142 l 753 -142 q 736 -166 745 -166 l 706 -160 l 694 -172 q 665 -142 690 -142 q 500 366 570 77 l 234 277 q 175 182 197 193 l 169 153 l 151 153 l 175 218 l 175 224 l 169 224 l 139 159 l 151 146 q 62 23 129 146 q 27 -54 54 22 q -32 -172 15 -54 l -38 -172 q -97 -125 -38 -145 l -109 -137 q -127 -125 -109 -125 l -144 -131 q -180 -96 -157 -99 l -180 -77 q 145 714 -180 66 q 21 850 21 798 l 21 879 q 239 985 26 910 q 553 1033 269 1033 m 363 566 l 376 566 q 806 808 730 718 l 806 814 l 688 820 l 677 820 q 452 767 452 820 q 363 566 382 589 z "},"s":{"ha":736,"x_min":-407,"x_max":949,"o":"m 848 1043 l 861 1043 q 937 999 889 1043 l 943 993 l 949 993 l 943 968 l 949 892 q 880 791 939 791 l 842 791 q 224 621 595 791 l 224 608 l 230 608 q 734 482 688 570 q 779 393 779 456 q 728 186 762 186 q 413 16 586 79 q -300 -186 153 -73 l -306 -180 l -306 -174 l -262 -155 l -262 -142 l -331 -155 l -331 -149 q -300 -130 -331 -134 l -300 -117 l -319 -117 l -319 -104 l -306 -104 l -306 -98 l -344 -85 l -338 -79 l -338 -60 q -363 -41 -363 -60 l -369 -47 l -382 -47 l -382 -41 l -376 -35 l -376 -29 l -388 -29 q -407 -16 -388 -16 l -407 -10 q 104 167 -407 22 q 495 324 443 284 q -41 438 -41 359 q -104 557 -104 479 q -28 728 -104 630 q 848 1043 433 1043 m -281 -79 l -281 -85 l -268 -85 l -268 -79 l -281 -79 z "},"t":{"ha":916,"x_min":-140,"x_max":1019,"o":"m 667 1048 l 788 1042 l 909 1042 q 961 1009 945 1042 l 954 1003 q 986 984 986 1001 l 986 977 l 916 977 l 916 971 l 941 971 l 941 958 l 929 958 l 935 951 l 929 945 l 929 932 l 961 926 l 961 920 l 954 913 l 954 907 q 993 856 993 907 q 1019 837 1019 852 l 1019 824 l 641 779 q 564 658 593 779 q 161 -180 227 0 q 97 -219 122 -219 l 71 -193 q 33 -161 33 -193 l 26 -168 l 20 -168 q -43 -111 19 -152 l -63 -78 q 244 606 -63 51 l 296 728 l 58 690 q -121 811 -76 690 l -140 888 l -140 901 q -89 977 -140 941 l -5 977 q 667 1048 195 977 z "},"u":{"ha":1018,"x_min":-7,"x_max":1029,"o":"m 342 1013 l 372 1013 q 526 913 467 1013 l 532 889 q 401 593 532 840 q 265 102 265 325 l 265 84 q 514 327 418 184 q 781 741 739 614 l 816 818 q 833 836 833 818 l 840 842 l 852 842 l 852 818 l 857 818 q 887 918 873 918 l 893 918 l 893 895 l 899 895 l 899 942 l 911 942 l 911 924 q 964 1013 932 935 l 970 1013 q 1029 842 1029 958 q 526 -46 1029 451 q 307 -106 430 -106 q 5 60 80 -106 l -7 132 l -7 161 q 88 575 -7 394 l 242 937 q 342 1013 292 1013 z "},"v":{"ha":987,"x_min":-31,"x_max":1178,"o":"m 1133 1022 l 1145 989 l 1152 989 l 1158 996 l 1165 996 l 1171 989 l 1165 983 l 1165 977 l 1178 964 q 919 634 1178 939 q 447 -32 560 172 q 357 -135 419 -135 l 331 -135 q 143 -52 221 -135 l 156 7 l 20 718 l -31 958 l -31 964 q 46 1015 1 1015 q 214 951 132 1015 q 279 783 279 904 q 357 317 288 781 l 363 317 l 518 517 q 589 608 582 571 l 596 608 l 602 602 l 609 602 l 667 660 l 673 654 l 673 660 l 667 680 l 686 692 l 693 692 l 699 660 l 712 673 l 706 699 l 712 699 l 706 718 q 745 770 724 761 l 751 770 l 758 764 l 764 764 l 777 777 l 777 764 l 770 757 l 770 751 l 777 751 l 848 841 l 854 841 l 854 835 l 809 777 l 809 738 l 880 815 l 887 808 l 893 808 l 893 821 l 900 821 l 887 854 l 893 861 l 900 861 l 906 854 l 913 854 l 977 905 l 984 899 l 984 892 l 951 861 l 951 854 l 964 854 q 1133 1022 1107 1020 z "},"w":{"ha":1377,"x_min":-28,"x_max":1423,"o":"m 1252 1097 l 1258 1090 l 1258 1084 l 1276 1090 q 1301 1066 1301 1084 l 1308 1066 l 1314 1084 q 1399 1054 1399 1066 l 1393 1035 l 1399 1041 l 1405 1041 l 1423 1035 l 1423 1029 q 1148 557 1423 984 l 848 37 l 799 -68 q 713 -104 750 -104 q 559 -37 559 -71 q 474 257 474 37 q 315 18 375 148 q 186 -98 271 -98 q 113 -74 146 -98 l 106 -80 l 100 -80 q 64 -50 89 -80 q -16 245 19 -50 q -28 606 -28 328 l -16 931 q 94 998 -16 982 q 229 925 175 985 l 241 888 l 241 845 l 216 612 l 216 527 l 222 490 l 216 459 l 222 453 l 216 422 l 216 398 l 222 374 l 216 349 l 216 318 l 462 600 q 492 747 476 600 l 529 760 l 541 772 l 584 766 l 603 766 l 646 772 l 652 766 l 652 760 l 646 753 l 676 747 l 682 747 l 701 760 l 707 760 l 713 753 l 719 760 l 749 760 l 774 729 q 793 717 793 729 l 725 551 l 713 477 l 713 368 l 707 361 l 713 300 l 719 300 q 946 625 815 457 q 983 667 958 667 l 977 673 l 977 680 q 1124 895 1097 880 q 1197 1041 1124 919 q 1252 1097 1197 1075 m 1099 821 l 1099 814 l 1111 827 l 1111 833 l 1099 821 m 1056 766 l 1056 747 l 1062 747 l 1062 766 l 1056 766 z "},"x":{"ha":916,"x_min":-303,"x_max":1017,"o":"m 847 1000 l 853 1000 q 897 987 897 998 l 904 994 l 910 994 q 1017 874 1017 924 q 791 686 1013 854 l 483 397 q 646 -37 646 93 q 621 -138 646 -71 l 608 -138 l 564 -144 l 558 -138 l 558 -132 l 483 -157 l 476 -125 l 470 -132 l 464 -132 q 389 63 456 -132 l 294 233 q 250 183 250 195 l 199 164 l 206 157 l 206 151 l 5 -50 q -90 -170 -37 -88 l -134 -182 q -171 -157 -171 -169 l -178 -163 l -190 -163 l -215 -144 l -222 -151 q -303 -81 -276 -117 l -303 -62 q 193 447 -303 14 l 199 453 l 199 459 q 137 793 168 563 q 206 981 137 914 l 275 981 q 414 905 366 981 l 414 868 l 401 780 l 407 774 l 401 742 l 407 705 l 401 705 l 414 654 l 772 975 q 847 1000 814 1000 z "},"y":{"ha":836,"x_min":-271,"x_max":1069,"o":"m 926 1006 l 951 1006 q 1069 920 997 1006 l 1069 895 q 225 119 319 165 q 194 94 225 94 q 58 -54 194 75 q -54 -210 -34 -137 l -85 -216 q -147 -191 -121 -216 l -159 -203 q -228 -166 -168 -166 l -271 -117 l -271 -104 q 188 374 -271 -7 q 312 516 312 500 q 76 913 76 752 l 76 951 q 182 987 108 987 l 206 987 q 380 814 321 987 q 479 646 380 751 q 795 963 541 689 q 926 1006 869 1006 z "},"z":{"ha":762,"x_min":-233,"x_max":1042,"o":"m 870 1000 l 896 1000 q 1042 841 994 1000 l 1042 835 q 851 651 1042 781 q 256 132 379 205 l 256 125 l 363 132 l 610 132 l 826 125 l 832 132 l 839 132 l 845 125 l 877 132 l 940 132 l 953 119 l 946 100 l 953 100 q 978 87 978 100 l 959 68 l 978 49 l 978 43 l 965 5 l 965 -2 q 984 -21 984 -2 l 1010 -33 q 864 -110 1010 -110 l 845 -103 l 813 -110 l 661 -103 l 547 -103 q -43 -192 182 -103 l -87 -192 q -233 -14 -233 -140 l -233 11 q -138 62 -233 40 q 224 423 -115 150 q 553 702 455 604 l 547 702 q 300 670 376 670 q 122 810 173 670 l 122 848 q 578 956 163 956 q 870 1000 793 1000 z "},"{":{"ha":688,"x_min":163,"x_max":600,"o":"m 163 473 q 314 522 279 477 q 349 612 349 566 l 349 929 q 401 1025 349 979 q 526 1071 453 1071 l 600 1071 l 600 1037 l 538 1037 q 466 1014 497 1037 q 434 952 435 991 l 434 613 q 393 506 434 557 q 296 454 352 454 l 296 452 q 393 401 352 452 q 435 294 435 350 l 434 -45 q 466 -107 435 -85 q 538 -130 497 -130 l 600 -130 l 600 -164 l 526 -164 q 401 -118 453 -164 q 349 -22 349 -73 l 349 295 q 314 385 349 340 q 163 433 279 429 l 163 473 z "},"|":{"ha":688,"x_min":290,"x_max":398,"o":"m 290 1069 l 398 1069 l 398 -283 l 290 -283 l 290 1069 z "},"}":{"ha":688,"x_min":88,"x_max":525,"o":"m 525 433 q 374 385 408 429 q 339 295 339 340 l 339 -22 q 287 -118 338 -73 q 161 -164 235 -164 l 88 -164 l 88 -130 l 149 -130 q 222 -107 191 -130 q 254 -45 253 -85 l 253 294 q 294 401 253 350 q 392 452 336 452 l 392 454 q 295 506 336 454 q 254 613 254 557 l 254 952 q 222 1014 253 991 q 149 1037 191 1037 l 88 1037 l 88 1071 l 161 1071 q 287 1025 235 1071 q 339 929 339 979 l 339 612 q 374 522 339 566 q 525 473 408 477 l 525 433 z "},"~":{"ha":688,"x_min":0,"x_max":718,"o":"m 191 588 l 210 588 q 515 490 246 588 l 566 480 q 680 515 593 480 l 680 509 l 686 515 l 712 515 l 712 509 l 654 446 l 661 446 l 667 451 l 667 441 l 693 456 l 699 451 l 705 451 l 718 460 l 718 456 q 566 368 650 368 l 541 368 q 254 431 505 368 l 235 431 q 96 397 210 431 l 13 382 l 0 397 l 0 407 q 83 559 0 491 q 191 588 127 588 z "},"":{"ha":456,"x_min":-119,"x_max":515,"o":"m 353 1015 l 359 1015 q 486 980 486 990 q 515 951 486 964 l 515 928 q 411 721 515 805 l 382 715 q 238 825 321 715 l 238 836 q 353 1015 332 998 m 221 726 l 233 726 q 302 698 267 698 q 371 623 371 647 l 71 18 q 14 0 41 0 l -4 0 q -119 81 -56 0 l -119 110 l 106 553 q 175 692 125 577 l 169 709 q 221 726 191 726 z "},"":{"ha":772,"x_min":0,"x_max":0,"o":""},"":{"ha":688,"x_min":52,"x_max":635,"o":"m 507 913 q 399 935 458 935 l 397 935 q 269 866 330 935 q 212 703 212 803 q 212 682 212 692 q 248 497 212 591 l 492 497 l 492 456 l 266 456 q 287 416 275 436 q 311 322 311 373 q 201 68 311 213 l 473 68 q 602 157 562 68 l 635 157 l 565 0 l 77 0 l 78 34 q 205 317 205 195 q 182 414 205 370 q 161 456 170 436 l 52 456 l 52 497 l 143 497 q 104 669 104 594 q 188 904 104 822 q 395 986 271 986 l 398 986 q 524 977 449 986 q 599 954 599 967 l 599 844 l 559 844 q 507 913 556 886 z "},"":{"ha":688,"x_min":83,"x_max":604,"o":"m 237 380 q 304 341 265 353 q 344 336 324 336 q 383 341 363 336 q 450 380 422 353 q 489 447 477 408 q 495 486 495 467 q 489 526 495 506 q 450 593 477 565 q 382 631 422 620 q 343 637 363 637 q 304 631 323 637 q 237 593 264 619 q 199 526 211 566 q 193 486 193 506 q 199 448 193 467 q 237 380 210 408 m 163 612 l 83 692 l 137 747 l 217 667 q 284 699 247 688 q 345 708 314 708 q 401 700 372 708 q 470 667 439 688 l 550 747 l 604 692 l 525 613 q 557 544 546 582 q 566 486 566 515 q 557 429 566 458 q 525 359 546 391 l 604 280 l 550 225 l 470 305 q 401 273 439 283 q 344 264 373 264 q 286 273 315 264 q 217 305 248 283 l 137 225 l 83 280 l 163 359 q 130 429 141 391 q 122 486 122 458 q 131 545 122 516 q 163 612 142 583 z "},"":{"ha":856,"x_min":5,"x_max":864,"o":"m 371 153 l 370 317 q 369 340 370 330 q 366 362 368 351 l 37 363 q 23 367 28 363 q 18 380 18 372 q 23 393 18 389 q 37 397 27 397 l 354 397 l 272 514 l 39 514 q 23 518 27 514 q 18 530 18 522 q 22 544 18 540 q 37 547 26 547 l 245 547 q 172 652 216 586 q 18 786 83 786 q 9 790 14 786 q 5 798 5 793 q 13 816 5 810 q 35 822 20 822 q 118 817 53 822 q 229 811 183 811 l 268 811 l 289 811 q 317 807 311 811 q 322 789 322 802 q 312 779 322 783 q 286 775 302 775 q 274 777 282 775 q 261 778 265 778 q 236 771 245 778 q 227 754 227 765 q 238 719 227 742 q 269 667 249 696 l 376 517 q 399 481 385 504 q 447 433 427 433 q 458 437 453 433 q 468 447 463 440 l 656 715 q 665 733 661 724 q 668 750 668 743 q 661 768 668 762 q 636 778 654 774 q 608 781 626 779 q 576 798 576 783 q 582 813 576 808 q 599 818 587 818 q 609 817 601 818 q 682 812 647 812 l 777 812 q 821 813 797 812 q 846 814 844 814 q 858 811 853 814 q 864 803 863 808 q 838 780 864 784 q 820 777 826 778 q 720 697 777 766 q 712 687 715 691 l 597 547 l 817 547 q 833 543 827 547 q 839 532 839 539 q 835 518 839 522 q 819 514 831 514 l 571 514 q 506 438 540 475 q 470 397 471 400 l 817 397 q 834 394 829 397 q 839 382 839 390 q 834 368 839 372 q 819 363 829 363 l 460 363 q 459 342 460 355 q 458 322 458 329 l 460 176 q 464 75 460 99 q 477 45 467 50 q 550 32 498 33 q 603 11 603 31 q 596 -3 603 3 q 579 -8 589 -8 q 555 -5 578 -8 q 511 -3 532 -3 q 370 -5 450 -3 q 273 -8 290 -8 q 246 -5 252 -8 q 240 5 240 -3 q 245 18 240 14 q 271 26 251 22 q 288 30 277 28 q 350 52 338 41 q 366 83 361 60 q 371 153 371 106 z "},"":{"ha":688,"x_min":290,"x_max":398,"o":"m 290 252 l 398 252 l 398 -283 l 290 -283 l 290 252 m 290 1070 l 398 1070 l 398 535 l 290 535 l 290 1070 z "},"":{"ha":688,"x_min":115,"x_max":572,"o":"m 370 218 q 435 254 408 229 q 485 366 485 298 q 484 373 485 370 l 483 373 q 480 391 482 382 q 404 477 465 433 q 318 497 363 497 q 233 467 265 497 q 201 387 201 437 q 370 218 201 304 m 316 -235 q 441 -188 393 -231 q 490 -76 490 -144 q 276 111 490 9 q 157 204 193 155 q 121 324 121 254 q 182 485 121 425 q 297 541 227 529 l 270 553 q 151 646 186 597 q 115 766 115 696 q 176 927 115 867 q 322 985 231 981 q 334 986 328 986 l 336 986 q 446 975 380 986 q 512 947 512 964 l 512 815 l 477 815 q 423 905 474 870 q 322 939 376 937 l 312 939 q 227 909 259 939 q 195 829 195 879 q 390 647 195 740 q 529 550 491 602 q 566 422 566 498 q 498 231 566 307 q 431 188 466 205 q 535 108 504 150 q 572 -19 572 56 q 504 -211 572 -135 q 316 -282 420 -280 l 316 -281 q 307 -282 312 -282 l 305 -282 q 195 -271 260 -282 q 129 -243 129 -260 l 129 -111 l 163 -111 q 218 -201 167 -166 q 316 -235 264 -231 z "},"":{"ha":694,"x_min":121,"x_max":528,"o":"m 189 926 l 205 926 q 273 880 239 926 l 273 875 q 202 788 211 788 l 199 788 q 183 802 183 793 l 180 799 l 178 799 q 121 829 144 799 l 121 837 q 170 924 121 863 l 189 926 m 449 926 q 528 880 492 926 l 528 878 q 463 780 528 859 l 454 780 l 441 791 l 427 788 l 422 799 l 411 791 l 397 791 q 376 826 376 807 q 438 926 402 926 l 449 926 z "},"":{"ha":1135,"x_min":68,"x_max":1067,"o":"m 570 987 q 760 949 668 987 q 922 840 851 911 q 1029 679 991 772 q 1067 487 1067 586 q 1029 296 1067 387 q 919 133 991 204 q 757 25 848 62 q 565 -12 666 -12 q 376 25 466 -12 q 215 134 287 63 q 105 295 143 205 q 68 487 68 386 q 105 679 68 587 q 214 840 143 770 q 375 949 283 911 q 570 987 468 987 m 242 812 q 143 663 178 747 q 109 487 109 579 q 143 311 109 394 q 243 163 178 229 q 392 63 310 98 q 566 28 474 28 q 742 63 659 28 q 890 161 825 97 q 991 312 956 228 q 1027 487 1027 395 q 991 663 1027 578 q 893 812 956 748 q 744 912 828 877 q 569 947 660 947 q 391 912 476 947 q 242 812 307 877 m 587 151 q 408 197 490 151 q 281 323 325 243 q 238 488 238 402 q 282 653 238 573 q 410 778 327 733 q 582 823 492 823 q 633 819 608 823 q 684 805 658 814 q 690 804 688 804 q 708 825 703 804 l 736 825 l 785 690 l 755 690 q 667 774 720 754 q 567 792 618 792 l 557 792 q 444 744 498 787 q 361 624 389 701 q 339 499 339 563 q 340 465 339 482 q 388 313 348 383 q 489 210 427 243 q 602 182 538 183 q 733 220 686 182 q 781 305 781 258 l 817 305 l 817 237 q 751 179 817 206 q 587 151 686 151 z "},"":{"ha":439,"x_min":0,"x_max":0,"o":""},"":{"ha":640,"x_min":118,"x_max":572,"o":"m 118 325 l 350 530 l 359 530 l 359 505 l 220 325 l 359 144 l 359 119 l 350 119 l 118 325 m 330 325 l 562 530 l 572 530 l 572 505 l 433 325 l 572 144 l 572 119 l 562 119 l 330 325 z "},"":{"ha":688,"x_min":59,"x_max":629,"o":"m 59 520 l 629 520 l 629 187 l 628 186 l 562 186 l 562 452 l 59 452 l 59 520 z "},"":{"ha":1135,"x_min":68,"x_max":1067,"o":"m 509 745 l 509 492 l 511 486 q 549 431 527 448 q 587 416 569 416 l 591 416 q 633 443 612 419 q 665 509 654 466 q 673 578 673 543 q 673 597 673 587 q 654 681 670 642 q 615 733 637 720 q 572 745 593 745 l 509 745 m 667 391 l 723 312 q 825 216 791 216 l 848 216 l 848 182 l 613 182 l 613 216 l 644 216 q 664 231 664 216 q 617 309 664 251 l 566 378 q 509 406 538 378 l 509 298 q 534 216 509 216 l 570 216 l 570 182 l 355 182 l 355 216 l 385 216 q 410 298 410 216 l 410 663 q 385 745 410 745 l 355 745 l 355 793 l 597 793 q 682 764 640 792 q 744 687 722 736 q 766 584 766 637 q 745 482 766 531 q 667 391 723 433 m 570 987 q 760 949 668 987 q 922 840 851 911 q 1029 679 991 772 q 1067 487 1067 586 q 1029 296 1067 387 q 919 133 991 204 q 757 25 848 62 q 565 -12 666 -12 q 376 25 466 -12 q 215 134 287 63 q 105 295 143 205 q 68 487 68 386 q 105 679 68 587 q 214 840 143 770 q 375 949 283 911 q 570 987 468 987 m 242 812 q 143 663 178 747 q 109 487 109 579 q 143 311 109 394 q 243 163 178 229 q 392 63 310 98 q 566 28 474 28 q 742 63 659 28 q 890 161 825 97 q 991 312 956 228 q 1027 487 1027 395 q 991 663 1027 578 q 893 812 956 748 q 744 912 828 877 q 569 947 660 947 q 391 912 476 947 q 242 812 307 877 z "},"":{"ha":454,"x_min":0,"x_max":0,"o":""},"":{"ha":457,"x_min":41,"x_max":418,"o":"m 230 930 q 130 889 172 930 q 88 789 88 848 q 130 689 88 730 q 230 648 171 648 q 330 689 289 648 q 370 789 370 730 q 329 889 370 848 q 230 930 288 930 m 230 978 q 363 923 308 978 q 418 789 418 867 q 362 656 418 712 q 229 601 307 601 q 95 656 149 601 q 41 789 41 711 q 96 923 41 868 q 230 978 151 978 z "},"":{"ha":688,"x_min":0,"x_max":0,"o":""},"":{"ha":688,"x_min":0,"x_max":0,"o":""},"":{"ha":688,"x_min":0,"x_max":0,"o":""},"":{"ha":694,"x_min":218,"x_max":568,"o":"m 462 1257 q 543 1218 543 1241 q 568 1193 552 1217 l 568 1186 q 451 1101 568 1158 q 306 1013 323 1013 l 299 1013 l 299 1023 l 302 1027 l 302 1030 q 281 1044 281 1030 l 281 1055 l 271 1048 l 264 1055 l 260 1052 l 250 1052 q 235 1069 235 1057 l 232 1065 l 229 1065 l 218 1080 l 218 1084 q 462 1257 305 1174 z "},"":{"ha":800,"x_min":0,"x_max":0,"o":""},"":{"ha":694,"x_min":63,"x_max":630,"o":"m 630 973 l 630 926 l 544 926 l 544 0 l 488 0 l 488 926 l 376 926 l 376 0 l 319 0 l 319 500 q 132 570 201 506 q 63 736 63 634 q 136 908 63 843 q 330 973 209 973 l 630 973 z "},"":{"ha":345,"x_min":87,"x_max":257,"o":"m 98 502 l 154 559 q 174 568 164 568 q 195 557 182 568 l 249 499 q 257 479 257 488 q 248 458 257 469 l 193 399 q 174 385 180 385 q 154 395 163 385 l 94 463 q 87 481 87 472 q 98 502 87 491 z "},"":{"ha":694,"x_min":188,"x_max":543,"o":"m 343 -136 l 358 -136 q 403 -171 397 -136 q 373 -235 373 -220 l 403 -235 q 543 -336 543 -235 q 323 -506 543 -458 l 273 -506 l 188 -501 l 188 -491 l 238 -476 l 228 -461 l 238 -451 l 298 -451 q 428 -391 401 -451 l 433 -366 l 433 -351 q 333 -296 433 -296 l 278 -300 l 273 -296 l 273 -291 l 328 -155 q 343 -136 336 -136 z "},"":{"ha":688,"x_min":0,"x_max":0,"o":""},"":{"ha":487,"x_min":0,"x_max":0,"o":""},"":{"ha":640,"x_min":68,"x_max":522,"o":"m 78 119 l 68 119 l 68 144 l 208 325 l 68 505 l 68 530 l 78 530 l 310 325 l 78 119 m 290 119 l 281 119 l 281 144 l 420 325 l 281 505 l 281 530 l 290 530 l 522 325 l 290 119 z "},"":{"ha":1158,"x_min":0,"x_max":0,"o":""},"":{"ha":1332,"x_min":0,"x_max":0,"o":""},"":{"ha":1158,"x_min":0,"x_max":0,"o":""},"":{"ha":507,"x_min":-203,"x_max":688,"o":"m 469 1017 l 492 1017 q 617 935 587 964 l 633 869 l 633 863 q 606 820 633 834 l 601 825 l 595 825 l 590 820 l 590 814 q 661 743 650 744 l 661 716 l 666 716 l 671 722 l 677 722 l 688 694 q 147 202 688 467 l 43 159 l 43 153 l 60 153 q 519 334 248 153 l 535 334 q 666 218 666 296 q 448 77 666 170 q 103 0 268 0 q -203 208 -99 0 l -203 224 q 142 410 -203 264 q 535 749 488 602 l 513 820 l 524 831 l 541 825 l 546 831 l 546 836 q 442 935 522 836 l 442 989 l 469 1017 m 562 825 l 573 814 l 573 825 l 562 825 z "},"":{"ha":1044,"x_min":-123,"x_max":1235,"o":"m 419 1261 q 603 1088 537 1179 l 603 1084 l 595 1070 l 592 1070 l 589 1074 q 579 1057 589 1061 l 571 1057 l 568 1060 l 563 1053 l 555 1060 l 555 1049 q 539 1035 555 1035 l 539 1031 l 542 1028 l 542 1017 l 536 1017 q 427 1106 524 1017 q 339 1191 339 1163 l 339 1198 q 357 1223 351 1221 q 419 1261 357 1246 m 488 986 q 688 889 651 986 q 739 547 709 803 l 745 541 q 762 501 748 501 l 944 524 l 944 513 l 950 513 l 1041 518 l 1041 507 l 1001 496 l 1001 490 l 1041 490 l 1081 496 l 1081 484 q 990 461 1023 461 l 990 450 l 1019 456 q 1058 433 1058 444 l 1087 439 q 1201 416 1201 435 l 1195 410 l 1235 399 l 1235 387 q 916 319 1158 347 l 813 302 q 887 -92 887 12 l 887 -115 l 870 -132 l 864 -132 q 825 -115 845 -132 l 825 -132 l 813 -132 l 813 -121 l 795 -132 l 773 -115 l 716 -138 l 670 -92 q 585 245 642 -46 l 579 245 q 220 90 220 146 q 83 -86 197 76 q 20 -132 43 -132 l 8 -104 l 3 -109 l -3 -109 q -37 -64 -37 -89 l -43 -69 l -54 -69 l -54 -58 q -100 -24 -78 -58 q -123 -12 -123 -24 l -123 28 q 14 239 -123 92 q 203 507 73 336 l 397 849 l 436 964 q 488 986 467 986 m 442 433 l 442 427 q 539 461 539 452 l 522 553 q 442 433 507 546 m 972 530 l 984 530 l 984 518 l 972 518 l 972 530 m 979 490 l 979 484 l 990 484 l 990 490 l 979 490 z "},"":{"ha":1044,"x_min":-123,"x_max":1235,"o":"m 625 1257 q 707 1218 707 1241 q 731 1193 715 1217 l 731 1186 q 614 1101 731 1158 q 469 1013 486 1013 l 463 1013 l 463 1023 l 466 1027 l 466 1030 q 445 1044 445 1030 l 445 1055 l 434 1048 l 427 1055 l 424 1052 l 413 1052 q 399 1069 399 1057 l 395 1065 l 392 1065 l 381 1080 l 381 1084 q 625 1257 469 1174 m 488 986 q 688 889 651 986 q 739 547 709 803 l 745 541 q 762 501 748 501 l 944 524 l 944 513 l 950 513 l 1041 518 l 1041 507 l 1001 496 l 1001 490 l 1041 490 l 1081 496 l 1081 484 q 990 461 1023 461 l 990 450 l 1019 456 q 1058 433 1058 444 l 1087 439 q 1201 416 1201 435 l 1195 410 l 1235 399 l 1235 387 q 916 319 1158 347 l 813 302 q 887 -92 887 12 l 887 -115 l 870 -132 l 864 -132 q 825 -115 845 -132 l 825 -132 l 813 -132 l 813 -121 l 795 -132 l 773 -115 l 716 -138 l 670 -92 q 585 245 642 -46 l 579 245 q 220 90 220 146 q 83 -86 197 76 q 20 -132 43 -132 l 8 -104 l 3 -109 l -3 -109 q -37 -64 -37 -89 l -43 -69 l -54 -69 l -54 -58 q -100 -24 -78 -58 q -123 -12 -123 -24 l -123 28 q 14 239 -123 92 q 203 507 73 336 l 397 849 l 436 964 q 488 986 467 986 m 442 433 l 442 427 q 539 461 539 452 l 522 553 q 442 433 507 546 m 972 530 l 984 530 l 984 518 l 972 518 l 972 530 m 979 490 l 979 484 l 990 484 l 990 490 l 979 490 z "},"":{"ha":1044,"x_min":0,"x_max":0,"o":""},"":{"ha":1044,"x_min":-82,"x_max":1276,"o":"m 476 1261 l 495 1261 q 800 1163 532 1261 l 851 1153 q 966 1187 879 1153 l 966 1182 l 972 1187 l 998 1187 l 998 1182 l 940 1119 l 947 1119 l 953 1124 l 953 1114 l 979 1128 l 985 1124 l 991 1124 l 1004 1133 l 1004 1128 q 851 1040 936 1040 l 826 1040 q 540 1104 790 1040 l 521 1104 q 381 1069 495 1104 l 298 1055 l 286 1069 l 286 1080 q 368 1232 286 1164 q 476 1261 412 1261 m 528 986 q 728 889 692 986 q 779 547 749 803 l 785 541 q 802 501 789 501 l 985 524 l 985 513 l 991 513 l 1082 518 l 1082 507 l 1042 496 l 1042 490 l 1082 490 l 1122 496 l 1122 484 q 1031 461 1063 461 l 1031 450 l 1059 456 q 1099 433 1099 444 l 1128 439 q 1242 416 1242 435 l 1236 410 l 1276 399 l 1276 387 q 956 319 1198 347 l 854 302 q 928 -92 928 12 l 928 -115 l 911 -132 l 905 -132 q 865 -115 886 -132 l 865 -132 l 854 -132 l 854 -121 l 836 -132 l 814 -115 l 757 -138 l 711 -92 q 625 245 682 -46 l 620 245 q 260 90 260 146 q 123 -86 237 76 q 60 -132 84 -132 l 49 -104 l 43 -109 l 38 -109 q 3 -64 3 -89 l -2 -69 l -14 -69 l -14 -58 q -59 -24 -37 -58 q -82 -12 -82 -24 l -82 28 q 55 239 -82 92 q 243 507 113 336 l 437 849 l 477 964 q 528 986 507 986 m 483 433 l 483 427 q 580 461 580 452 l 563 553 q 483 433 547 546 m 1013 530 l 1025 530 l 1025 518 l 1013 518 l 1013 530 m 1019 490 l 1019 484 l 1031 484 l 1031 490 l 1019 490 z "},"":{"ha":1044,"x_min":-123,"x_max":1235,"o":"m 420 1221 l 436 1221 q 504 1175 471 1221 l 504 1169 q 433 1082 442 1082 l 431 1082 q 414 1096 414 1088 l 412 1093 l 409 1093 q 352 1123 375 1093 l 352 1131 q 401 1218 352 1158 l 420 1221 m 680 1221 q 759 1175 724 1221 l 759 1172 q 694 1074 759 1154 l 686 1074 l 672 1085 l 659 1082 l 653 1093 l 642 1085 l 629 1085 q 607 1120 607 1101 q 669 1221 633 1221 l 680 1221 m 488 986 q 688 889 651 986 q 739 547 709 803 l 745 541 q 762 501 748 501 l 944 524 l 944 513 l 950 513 l 1041 518 l 1041 507 l 1001 496 l 1001 490 l 1041 490 l 1081 496 l 1081 484 q 990 461 1023 461 l 990 450 l 1019 456 q 1058 433 1058 444 l 1087 439 q 1201 416 1201 435 l 1195 410 l 1235 399 l 1235 387 q 916 319 1158 347 l 813 302 q 887 -92 887 12 l 887 -115 l 870 -132 l 864 -132 q 825 -115 845 -132 l 825 -132 l 813 -132 l 813 -121 l 795 -132 l 773 -115 l 716 -138 l 670 -92 q 585 245 642 -46 l 579 245 q 220 90 220 146 q 83 -86 197 76 q 20 -132 43 -132 l 8 -104 l 3 -109 l -3 -109 q -37 -64 -37 -89 l -43 -69 l -54 -69 l -54 -58 q -100 -24 -78 -58 q -123 -12 -123 -24 l -123 28 q 14 239 -123 92 q 203 507 73 336 l 397 849 l 436 964 q 488 986 467 986 m 442 433 l 442 427 q 539 461 539 452 l 522 553 q 442 433 507 546 m 972 530 l 984 530 l 984 518 l 972 518 l 972 530 m 979 490 l 979 484 l 990 484 l 990 490 l 979 490 z "},"":{"ha":1044,"x_min":0,"x_max":0,"o":""},"":{"ha":1436,"x_min":0,"x_max":0,"o":""},"":{"ha":949,"x_min":-119,"x_max":1084,"o":"m 806 974 l 850 974 q 1084 879 1014 974 l 1084 822 q 996 701 1084 701 q 857 720 931 720 q 217 277 391 720 l 204 214 l 204 195 q 331 75 204 99 q 540 56 410 56 l 654 56 l 654 43 l 628 43 l 628 37 q 660 12 643 37 l 666 12 l 666 -7 l 597 -14 l 597 -20 l 609 -20 l 597 -58 l 609 -58 l 609 -71 l 597 -71 l 597 -77 q 622 -102 622 -77 l 635 -102 l 628 -96 l 628 -90 l 635 -83 l 673 -83 l 673 -96 l 679 -102 l 673 -109 l 654 -109 l 654 -115 l 666 -128 l 685 -128 l 679 -121 l 679 -115 l 698 -109 l 717 -115 q 274 -172 717 -172 q -119 100 -5 -172 l -119 182 q 280 809 -119 476 q 806 974 515 974 m 666 31 l 704 31 l 704 18 l 666 18 l 666 31 m 343 -136 l 358 -136 q 403 -171 397 -136 q 373 -235 373 -220 l 403 -235 q 543 -336 543 -235 q 323 -506 543 -458 l 273 -506 l 188 -501 l 188 -491 l 238 -476 l 228 -461 l 238 -451 l 298 -451 q 428 -391 401 -451 l 433 -366 l 433 -351 q 333 -296 433 -296 l 278 -300 l 273 -296 l 273 -291 l 328 -155 q 343 -136 336 -136 z "},"":{"ha":781,"x_min":-176,"x_max":964,"o":"m 406 1261 q 589 1088 524 1179 l 589 1084 l 581 1070 l 578 1070 l 576 1074 q 566 1057 576 1061 l 557 1057 l 555 1060 l 549 1053 l 541 1060 l 541 1049 q 526 1035 541 1035 l 526 1031 l 528 1028 l 528 1017 l 523 1017 q 414 1106 510 1017 q 326 1191 326 1163 l 326 1198 q 344 1223 337 1221 q 406 1261 344 1246 m 790 991 q 813 968 790 968 l 813 957 l 795 957 l 795 951 q 825 939 825 951 l 825 933 l 802 933 q 836 916 802 916 l 836 904 l 819 904 l 819 899 l 888 899 l 941 869 l 935 863 l 935 858 q 964 846 964 858 q 749 800 964 825 q 470 718 675 800 l 406 590 l 412 590 q 592 608 443 602 l 604 590 l 586 584 l 586 578 q 633 567 633 578 l 604 555 l 604 549 l 615 549 l 610 532 q 656 485 610 503 l 656 479 l 650 473 l 650 468 q 680 456 680 468 l 680 450 q 313 357 680 433 q 196 182 267 357 l 615 252 l 615 241 l 621 241 l 650 247 q 680 218 658 218 l 680 200 q 650 182 665 200 l 638 182 l 638 177 l 673 177 l 673 165 l 644 165 l 650 159 l 650 153 l 644 148 q 737 119 730 148 l 732 113 q 761 95 761 109 q 412 8 709 62 q 62 -97 62 -51 q 10 -149 54 -127 l 4 -149 l -31 -120 l -43 -120 l -72 -126 q -130 -97 -72 -111 l -147 -102 l -153 -97 l -153 -91 l -147 -73 l -159 -73 l -165 -79 l -170 -79 l -176 -73 l -176 -68 q 254 910 -128 105 q 336 980 254 968 l 563 974 l 790 991 z "},"":{"ha":781,"x_min":-163,"x_max":978,"o":"m 747 1257 q 829 1218 829 1241 q 853 1193 838 1217 l 853 1186 q 736 1101 853 1158 q 591 1013 608 1013 l 585 1013 l 585 1023 l 588 1027 l 588 1030 q 567 1044 567 1030 l 567 1055 l 556 1048 l 549 1055 l 546 1052 l 535 1052 q 521 1069 521 1057 l 517 1065 l 514 1065 l 503 1080 l 503 1084 q 747 1257 591 1174 m 804 991 q 827 968 804 968 l 827 957 l 809 957 l 809 951 q 838 939 838 951 l 838 933 l 815 933 q 850 916 815 916 l 850 904 l 832 904 l 832 899 l 902 899 l 955 869 l 949 863 l 949 858 q 978 846 978 858 q 762 800 978 825 q 484 718 689 800 l 419 590 l 425 590 q 606 608 456 602 l 617 590 l 600 584 l 600 578 q 646 567 646 578 l 617 555 l 617 549 l 629 549 l 623 532 q 669 485 623 503 l 669 479 l 664 473 l 664 468 q 693 456 693 468 l 693 450 q 326 357 693 433 q 210 182 281 357 l 629 252 l 629 241 l 635 241 l 664 247 q 693 218 671 218 l 693 200 q 664 182 679 200 l 652 182 l 652 177 l 687 177 l 687 165 l 658 165 l 664 159 l 664 153 l 658 148 q 751 119 744 148 l 745 113 q 774 95 774 109 q 425 8 723 62 q 76 -97 76 -51 q 24 -149 68 -127 l 18 -149 l -17 -120 l -29 -120 l -58 -126 q -116 -97 -58 -111 l -134 -102 l -140 -97 l -140 -91 l -134 -73 l -145 -73 l -151 -79 l -157 -79 l -163 -73 l -163 -68 q 268 910 -115 105 q 349 980 268 968 l 576 974 l 804 991 z "},"":{"ha":781,"x_min":0,"x_max":0,"o":""},"":{"ha":781,"x_min":-176,"x_max":964,"o":"m 468 1221 l 484 1221 q 552 1175 519 1221 l 552 1169 q 481 1082 490 1082 l 479 1082 q 463 1096 463 1088 l 460 1093 l 457 1093 q 400 1123 423 1093 l 400 1131 q 449 1218 400 1158 l 468 1221 m 728 1221 q 807 1175 772 1221 l 807 1172 q 742 1074 807 1154 l 734 1074 l 720 1085 l 707 1082 l 701 1093 l 690 1085 l 677 1085 q 655 1120 655 1101 q 718 1221 682 1221 l 728 1221 m 790 991 q 813 968 790 968 l 813 957 l 795 957 l 795 951 q 825 939 825 951 l 825 933 l 802 933 q 836 916 802 916 l 836 904 l 819 904 l 819 899 l 888 899 l 941 869 l 935 863 l 935 858 q 964 846 964 858 q 749 800 964 825 q 470 718 675 800 l 406 590 l 412 590 q 592 608 443 602 l 604 590 l 586 584 l 586 578 q 633 567 633 578 l 604 555 l 604 549 l 615 549 l 610 532 q 656 485 610 503 l 656 479 l 650 473 l 650 468 q 680 456 680 468 l 680 450 q 313 357 680 433 q 196 182 267 357 l 615 252 l 615 241 l 621 241 l 650 247 q 680 218 658 218 l 680 200 q 650 182 665 200 l 638 182 l 638 177 l 673 177 l 673 165 l 644 165 l 650 159 l 650 153 l 644 148 q 737 119 730 148 l 732 113 q 761 95 761 109 q 412 8 709 62 q 62 -97 62 -51 q 10 -149 54 -127 l 4 -149 l -31 -120 l -43 -120 l -72 -126 q -130 -97 -72 -111 l -147 -102 l -153 -97 l -153 -91 l -147 -73 l -159 -73 l -165 -79 l -170 -79 l -176 -73 l -176 -68 q 254 910 -128 105 q 336 980 254 968 l 563 974 l 790 991 z "},"":{"ha":446,"x_min":-203,"x_max":541,"o":"m 334 1261 q 517 1088 452 1179 l 517 1084 l 509 1070 l 507 1070 l 504 1074 q 494 1057 504 1061 l 486 1057 l 483 1060 l 477 1053 l 469 1060 l 469 1049 q 454 1035 469 1035 l 454 1031 l 456 1028 l 456 1017 l 451 1017 q 342 1106 438 1017 q 254 1191 254 1163 l 254 1198 q 272 1223 265 1221 q 334 1261 272 1246 m 328 978 l 366 978 q 541 878 478 978 l 541 853 q 422 641 541 836 l 147 73 q 72 -40 94 -26 l 66 -33 l 60 -33 l 47 -64 l 35 -64 l 47 -21 l -22 -134 l -28 -134 l -34 -127 l -34 -121 l -28 -115 l -28 -102 l -34 -102 l -59 -159 l -72 -159 l -72 -152 l -59 -121 l -159 -202 l -178 -190 l -172 -183 l -172 -165 l -191 -177 l -203 -165 q 247 903 -203 -83 q 328 978 274 978 z "},"":{"ha":446,"x_min":-211,"x_max":701,"o":"m 595 1257 q 677 1218 677 1241 q 701 1193 686 1217 l 701 1186 q 585 1101 701 1158 q 439 1013 456 1013 l 433 1013 l 433 1023 l 436 1027 l 436 1030 q 415 1044 415 1030 l 415 1055 l 404 1048 l 397 1055 l 394 1052 l 383 1052 q 369 1069 369 1057 l 366 1065 l 362 1065 l 351 1080 l 351 1084 q 595 1257 439 1174 m 320 978 l 357 978 q 532 878 470 978 l 532 853 q 414 641 532 836 l 139 73 q 64 -40 85 -26 l 58 -33 l 52 -33 l 39 -64 l 26 -64 l 39 -21 l -30 -134 l -36 -134 l -42 -127 l -42 -121 l -36 -115 l -36 -102 l -42 -102 l -67 -159 l -80 -159 l -80 -152 l -67 -121 l -168 -202 l -186 -190 l -180 -183 l -180 -165 l -199 -177 l -211 -165 q 239 903 -211 -83 q 320 978 266 978 z "},"":{"ha":446,"x_min":0,"x_max":0,"o":""},"":{"ha":446,"x_min":-231,"x_max":644,"o":"m 305 1221 l 321 1221 q 389 1175 356 1221 l 389 1169 q 319 1082 328 1082 l 316 1082 q 300 1096 300 1088 l 297 1093 l 294 1093 q 237 1123 260 1093 l 237 1131 q 286 1218 237 1158 l 305 1221 m 566 1221 q 644 1175 609 1221 l 644 1172 q 579 1074 644 1154 l 571 1074 l 557 1085 l 544 1082 l 538 1093 l 528 1085 l 514 1085 q 492 1120 492 1101 q 555 1221 519 1221 l 566 1221 m 300 978 l 337 978 q 512 878 450 978 l 512 853 q 393 641 512 836 l 119 73 q 43 -40 65 -26 l 37 -33 l 31 -33 l 18 -64 l 6 -64 l 18 -21 l -50 -134 l -56 -134 l -62 -127 l -62 -121 l -56 -115 l -56 -102 l -62 -102 l -87 -159 l -100 -159 l -100 -152 l -87 -121 l -188 -202 l -206 -190 l -200 -183 l -200 -165 l -219 -177 l -231 -165 q 218 903 -231 -83 q 300 978 245 978 z "},"":{"ha":1029,"x_min":0,"x_max":0,"o":""},"":{"ha":1054,"x_min":-159,"x_max":1195,"o":"m 606 1261 l 625 1261 q 930 1163 661 1261 l 981 1153 q 1095 1187 1008 1153 l 1095 1182 l 1101 1187 l 1127 1187 l 1127 1182 l 1069 1119 l 1076 1119 l 1082 1124 l 1082 1114 l 1108 1128 l 1114 1124 l 1120 1124 l 1133 1133 l 1133 1128 q 981 1040 1065 1040 l 956 1040 q 669 1104 920 1040 l 650 1104 q 511 1069 625 1104 l 428 1055 l 415 1069 l 415 1080 q 498 1232 415 1164 q 606 1261 542 1261 m 1018 1017 l 1061 1017 q 1195 944 1142 1017 l 1195 926 l 963 328 q 792 -117 878 170 l 774 -136 l 755 -136 l 731 -117 l 725 -123 l 694 -123 l 664 -105 l 603 -111 l 554 -56 l 554 -14 q 597 115 554 14 l 439 492 l 390 639 l 384 639 l 140 127 q 79 -75 97 39 l 85 -81 l 85 -87 q 60 -136 75 -136 l 42 -136 l -19 -99 l -31 -99 l -56 -105 l -74 -99 l -86 -111 l -92 -105 l -98 -105 l -104 -111 l -159 -38 l -159 -14 q 127 657 -159 96 l 274 968 q 481 1005 307 995 q 566 944 522 1005 l 566 938 q 725 426 566 765 q 914 926 810 572 q 987 1005 935 1005 q 1018 1017 987 1016 z "},"":{"ha":1095,"x_min":9,"x_max":1086,"o":"m 605 1261 q 789 1088 723 1179 l 789 1084 l 781 1070 l 778 1070 l 775 1074 q 765 1057 775 1061 l 757 1057 l 754 1060 l 749 1053 l 741 1060 l 741 1049 q 725 1035 741 1035 l 725 1031 l 728 1028 l 728 1017 l 722 1017 q 613 1106 709 1017 q 525 1191 525 1163 l 525 1198 q 543 1223 536 1221 q 605 1261 543 1246 m 890 1015 l 897 1015 q 1027 890 961 1015 l 1034 884 l 1034 853 q 936 803 1034 824 l 936 797 q 1086 449 1086 611 l 1086 418 q 740 -98 1086 16 q 545 -130 622 -130 l 473 -130 q 35 181 169 -130 q 9 293 16 185 l 9 337 q 446 884 9 638 q 890 1015 722 1015 m 251 281 l 251 275 q 388 151 251 167 l 440 151 q 831 393 651 151 q 870 561 859 456 q 851 667 864 648 l 857 685 q 831 779 840 779 q 388 530 640 753 q 251 281 251 397 z "},"":{"ha":685,"x_min":-168,"x_max":909,"o":"m 709 1257 q 790 1218 790 1241 q 814 1193 799 1217 l 814 1186 q 698 1101 814 1158 q 553 1013 570 1013 l 546 1013 l 546 1023 l 549 1027 l 549 1030 q 528 1044 528 1030 l 528 1055 l 517 1048 l 511 1055 l 507 1052 l 496 1052 q 482 1069 482 1057 l 479 1065 l 475 1065 l 465 1080 l 465 1084 q 709 1257 552 1174 m 713 1015 l 720 1015 q 850 890 784 1015 l 857 884 l 857 853 q 759 803 857 824 l 759 797 q 909 449 909 611 l 909 418 q 563 -98 909 16 q 368 -130 445 -130 l 296 -130 q -142 181 -8 -130 q -168 293 -161 185 l -168 337 q 269 884 -168 638 q 713 1015 545 1015 m 74 281 l 74 275 q 211 151 74 167 l 263 151 q 654 393 474 151 q 693 561 682 456 q 674 667 687 648 l 680 685 q 654 779 663 779 q 211 530 463 753 q 74 281 74 397 z "},"":{"ha":1095,"x_min":0,"x_max":0,"o":""},"":{"ha":1095,"x_min":-45,"x_max":1139,"o":"m 612 1261 l 631 1261 q 936 1163 667 1261 l 987 1153 q 1101 1187 1015 1153 l 1101 1182 l 1107 1187 l 1133 1187 l 1133 1182 l 1076 1119 l 1082 1119 l 1088 1124 l 1088 1114 l 1114 1128 l 1120 1124 l 1126 1124 l 1139 1133 l 1139 1128 q 987 1040 1072 1040 l 962 1040 q 675 1104 926 1040 l 656 1104 q 517 1069 631 1104 l 434 1055 l 421 1069 l 421 1080 q 504 1232 421 1164 q 612 1261 548 1261 m 835 1015 l 842 1015 q 972 890 906 1015 l 979 884 l 979 853 q 881 803 979 824 l 881 797 q 1031 449 1031 611 l 1031 418 q 685 -98 1031 16 q 490 -130 567 -130 l 418 -130 q -20 181 114 -130 q -45 293 -39 185 l -45 337 q 391 884 -45 638 q 835 1015 667 1015 m 196 281 l 196 275 q 333 151 196 167 l 385 151 q 777 393 596 151 q 815 561 804 456 q 796 667 809 648 l 802 685 q 777 779 785 779 q 333 530 585 753 q 196 281 196 397 z "},"":{"ha":685,"x_min":-196,"x_max":880,"o":"m 428 1221 l 444 1221 q 512 1175 479 1221 l 512 1169 q 441 1082 450 1082 l 439 1082 q 422 1096 422 1088 l 420 1093 l 417 1093 q 360 1123 383 1093 l 360 1131 q 409 1218 360 1158 l 428 1221 m 688 1221 q 767 1175 732 1221 l 767 1172 q 702 1074 767 1154 l 694 1074 l 680 1085 l 667 1082 l 661 1093 l 650 1085 l 637 1085 q 615 1120 615 1101 q 677 1221 642 1221 l 688 1221 m 684 1015 l 691 1015 q 821 890 755 1015 l 828 884 l 828 853 q 730 803 828 824 l 730 797 q 880 449 880 611 l 880 418 q 534 -98 880 16 q 339 -130 416 -130 l 267 -130 q -170 181 -37 -130 q -196 293 -189 185 l -196 337 q 241 884 -196 638 q 684 1015 517 1015 m 45 281 l 45 275 q 182 151 45 167 l 235 151 q 626 393 446 151 q 665 561 654 456 q 646 667 659 648 l 652 685 q 626 779 634 779 q 182 530 434 753 q 45 281 45 397 z "},"":{"ha":688,"x_min":109,"x_max":578,"o":"m 344 419 l 176 252 l 109 319 l 277 486 l 109 654 l 176 721 l 344 553 l 512 721 l 578 654 l 411 486 l 578 319 l 511 252 l 344 419 z "},"":{"ha":1095,"x_min":0,"x_max":0,"o":""},"":{"ha":1018,"x_min":-142,"x_max":893,"o":"m 466 1261 q 650 1088 584 1179 l 650 1084 l 642 1070 l 639 1070 l 636 1074 q 626 1057 636 1061 l 618 1057 l 615 1060 l 610 1053 l 602 1060 l 602 1049 q 586 1035 602 1035 l 586 1031 l 589 1028 l 589 1017 l 583 1017 q 474 1106 570 1017 q 386 1191 386 1163 l 386 1198 q 404 1223 397 1221 q 466 1261 404 1246 m 207 1013 l 237 1013 q 391 913 331 1013 l 396 889 q 266 593 396 840 q 130 102 130 325 l 130 84 q 378 327 283 184 q 645 741 604 614 l 680 818 q 698 836 698 818 l 704 842 l 716 842 l 716 818 l 722 818 q 751 918 738 918 l 758 918 l 758 895 l 763 895 l 763 942 l 775 942 l 775 924 q 828 1013 796 935 l 834 1013 q 893 842 893 958 q 391 -46 893 451 q 172 -106 294 -106 q -131 60 -56 -106 l -142 132 l -142 161 q -47 575 -142 394 l 106 937 q 207 1013 157 1013 z "},"":{"ha":718,"x_min":-149,"x_max":886,"o":"m 701 1257 q 782 1218 782 1241 q 806 1193 791 1217 l 806 1186 q 690 1101 806 1158 q 545 1013 562 1013 l 538 1013 l 538 1023 l 541 1027 l 541 1030 q 520 1044 520 1030 l 520 1055 l 509 1048 l 503 1055 l 499 1052 l 488 1052 q 474 1069 474 1057 l 471 1065 l 467 1065 l 456 1080 l 456 1084 q 701 1257 544 1174 m 200 1013 l 230 1013 q 384 913 324 1013 l 389 889 q 259 593 389 840 q 123 102 123 325 l 123 84 q 372 327 276 184 q 638 741 597 614 l 673 818 q 691 836 691 818 l 697 842 l 709 842 l 709 818 l 715 818 q 745 918 731 918 l 751 918 l 751 895 l 756 895 l 756 942 l 768 942 l 768 924 q 821 1013 789 935 l 827 1013 q 886 842 886 958 q 384 -46 886 451 q 165 -106 288 -106 q -138 60 -62 -106 l -149 132 l -149 161 q -54 575 -149 394 l 100 937 q 200 1013 150 1013 z "},"":{"ha":1018,"x_min":0,"x_max":0,"o":""},"":{"ha":718,"x_min":-142,"x_max":893,"o":"m 435 1221 l 451 1221 q 519 1175 486 1221 l 519 1169 q 448 1082 457 1082 l 446 1082 q 429 1096 429 1088 l 427 1093 l 424 1093 q 367 1123 390 1093 l 367 1131 q 416 1218 367 1158 l 435 1221 m 695 1221 q 774 1175 739 1221 l 774 1172 q 709 1074 774 1154 l 701 1074 l 687 1085 l 673 1082 l 668 1093 l 657 1085 l 644 1085 q 622 1120 622 1101 q 684 1221 648 1221 l 695 1221 m 207 1013 l 237 1013 q 391 913 331 1013 l 396 889 q 266 593 396 840 q 130 102 130 325 l 130 84 q 378 327 283 184 q 645 741 604 614 l 680 818 q 698 836 698 818 l 704 842 l 716 842 l 716 818 l 722 818 q 751 918 738 918 l 758 918 l 758 895 l 763 895 l 763 942 l 775 942 l 775 924 q 828 1013 796 935 l 834 1013 q 893 842 893 958 q 391 -46 893 451 q 172 -106 294 -106 q -131 60 -56 -106 l -142 132 l -142 161 q -47 575 -142 394 l 106 937 q 207 1013 157 1013 z "},"":{"ha":836,"x_min":0,"x_max":0,"o":""},"":{"ha":760,"x_min":0,"x_max":0,"o":""},"":{"ha":848,"x_min":0,"x_max":0,"o":""},"":{"ha":625,"x_min":0,"x_max":0,"o":""},"":{"ha":1044,"x_min":-123,"x_max":1235,"o":"m 625 1257 q 707 1218 707 1241 q 731 1193 715 1217 l 731 1186 q 614 1101 731 1158 q 469 1013 486 1013 l 463 1013 l 463 1023 l 466 1027 l 466 1030 q 445 1044 445 1030 l 445 1055 l 434 1048 l 427 1055 l 424 1052 l 413 1052 q 399 1069 399 1057 l 395 1065 l 392 1065 l 381 1080 l 381 1084 q 625 1257 469 1174 m 488 986 q 688 889 651 986 q 739 547 709 803 l 745 541 q 762 501 748 501 l 944 524 l 944 513 l 950 513 l 1041 518 l 1041 507 l 1001 496 l 1001 490 l 1041 490 l 1081 496 l 1081 484 q 990 461 1023 461 l 990 450 l 1019 456 q 1058 433 1058 444 l 1087 439 q 1201 416 1201 435 l 1195 410 l 1235 399 l 1235 387 q 916 319 1158 347 l 813 302 q 887 -92 887 12 l 887 -115 l 870 -132 l 864 -132 q 825 -115 845 -132 l 825 -132 l 813 -132 l 813 -121 l 795 -132 l 773 -115 l 716 -138 l 670 -92 q 585 245 642 -46 l 579 245 q 220 90 220 146 q 83 -86 197 76 q 20 -132 43 -132 l 8 -104 l 3 -109 l -3 -109 q -37 -64 -37 -89 l -43 -69 l -54 -69 l -54 -58 q -100 -24 -78 -58 q -123 -12 -123 -24 l -123 28 q 14 239 -123 92 q 203 507 73 336 l 397 849 l 436 964 q 488 986 467 986 m 442 433 l 442 427 q 539 461 539 452 l 522 553 q 442 433 507 546 m 972 530 l 984 530 l 984 518 l 972 518 l 972 530 m 979 490 l 979 484 l 990 484 l 990 490 l 979 490 z "},"":{"ha":625,"x_min":0,"x_max":0,"o":""},"":{"ha":1044,"x_min":-82,"x_max":1276,"o":"m 476 1261 l 495 1261 q 800 1163 532 1261 l 851 1153 q 966 1187 879 1153 l 966 1182 l 972 1187 l 998 1187 l 998 1182 l 940 1119 l 947 1119 l 953 1124 l 953 1114 l 979 1128 l 985 1124 l 991 1124 l 1004 1133 l 1004 1128 q 851 1040 936 1040 l 826 1040 q 540 1104 790 1040 l 521 1104 q 381 1069 495 1104 l 298 1055 l 286 1069 l 286 1080 q 368 1232 286 1164 q 476 1261 412 1261 m 528 986 q 728 889 692 986 q 779 547 749 803 l 785 541 q 802 501 789 501 l 985 524 l 985 513 l 991 513 l 1082 518 l 1082 507 l 1042 496 l 1042 490 l 1082 490 l 1122 496 l 1122 484 q 1031 461 1063 461 l 1031 450 l 1059 456 q 1099 433 1099 444 l 1128 439 q 1242 416 1242 435 l 1236 410 l 1276 399 l 1276 387 q 956 319 1198 347 l 854 302 q 928 -92 928 12 l 928 -115 l 911 -132 l 905 -132 q 865 -115 886 -132 l 865 -132 l 854 -132 l 854 -121 l 836 -132 l 814 -115 l 757 -138 l 711 -92 q 625 245 682 -46 l 620 245 q 260 90 260 146 q 123 -86 237 76 q 60 -132 84 -132 l 49 -104 l 43 -109 l 38 -109 q 3 -64 3 -89 l -2 -69 l -14 -69 l -14 -58 q -59 -24 -37 -58 q -82 -12 -82 -24 l -82 28 q 55 239 -82 92 q 243 507 113 336 l 437 849 l 477 964 q 528 986 507 986 m 483 433 l 483 427 q 580 461 580 452 l 563 553 q 483 433 547 546 m 1013 530 l 1025 530 l 1025 518 l 1013 518 l 1013 530 m 1019 490 l 1019 484 l 1031 484 l 1031 490 l 1019 490 z "},"":{"ha":1044,"x_min":-123,"x_max":1235,"o":"m 420 1221 l 436 1221 q 504 1175 471 1221 l 504 1169 q 433 1082 442 1082 l 431 1082 q 414 1096 414 1088 l 412 1093 l 409 1093 q 352 1123 375 1093 l 352 1131 q 401 1218 352 1158 l 420 1221 m 680 1221 q 759 1175 724 1221 l 759 1172 q 694 1074 759 1154 l 686 1074 l 672 1085 l 659 1082 l 653 1093 l 642 1085 l 629 1085 q 607 1120 607 1101 q 669 1221 633 1221 l 680 1221 m 488 986 q 688 889 651 986 q 739 547 709 803 l 745 541 q 762 501 748 501 l 944 524 l 944 513 l 950 513 l 1041 518 l 1041 507 l 1001 496 l 1001 490 l 1041 490 l 1081 496 l 1081 484 q 990 461 1023 461 l 990 450 l 1019 456 q 1058 433 1058 444 l 1087 439 q 1201 416 1201 435 l 1195 410 l 1235 399 l 1235 387 q 916 319 1158 347 l 813 302 q 887 -92 887 12 l 887 -115 l 870 -132 l 864 -132 q 825 -115 845 -132 l 825 -132 l 813 -132 l 813 -121 l 795 -132 l 773 -115 l 716 -138 l 670 -92 q 585 245 642 -46 l 579 245 q 220 90 220 146 q 83 -86 197 76 q 20 -132 43 -132 l 8 -104 l 3 -109 l -3 -109 q -37 -64 -37 -89 l -43 -69 l -54 -69 l -54 -58 q -100 -24 -78 -58 q -123 -12 -123 -24 l -123 28 q 14 239 -123 92 q 203 507 73 336 l 397 849 l 436 964 q 488 986 467 986 m 442 433 l 442 427 q 539 461 539 452 l 522 553 q 442 433 507 546 m 972 530 l 984 530 l 984 518 l 972 518 l 972 530 m 979 490 l 979 484 l 990 484 l 990 490 l 979 490 z "},"":{"ha":625,"x_min":0,"x_max":0,"o":""},"":{"ha":986,"x_min":0,"x_max":0,"o":""},"":{"ha":949,"x_min":-119,"x_max":1084,"o":"m 806 974 l 850 974 q 1084 879 1014 974 l 1084 822 q 996 701 1084 701 q 857 720 931 720 q 217 277 391 720 l 204 214 l 204 195 q 331 75 204 99 q 540 56 410 56 l 654 56 l 654 43 l 628 43 l 628 37 q 660 12 643 37 l 666 12 l 666 -7 l 597 -14 l 597 -20 l 609 -20 l 597 -58 l 609 -58 l 609 -71 l 597 -71 l 597 -77 q 622 -102 622 -77 l 635 -102 l 628 -96 l 628 -90 l 635 -83 l 673 -83 l 673 -96 l 679 -102 l 673 -109 l 654 -109 l 654 -115 l 666 -128 l 685 -128 l 679 -121 l 679 -115 l 698 -109 l 717 -115 q 274 -172 717 -172 q -119 100 -5 -172 l -119 182 q 280 809 -119 476 q 806 974 515 974 m 666 31 l 704 31 l 704 18 l 666 18 l 666 31 m 343 -136 l 358 -136 q 403 -171 397 -136 q 373 -235 373 -220 l 403 -235 q 543 -336 543 -235 q 323 -506 543 -458 l 273 -506 l 188 -501 l 188 -491 l 238 -476 l 228 -461 l 238 -451 l 298 -451 q 428 -391 401 -451 l 433 -366 l 433 -351 q 333 -296 433 -296 l 278 -300 l 273 -296 l 273 -291 l 328 -155 q 343 -136 336 -136 z "},"":{"ha":781,"x_min":-176,"x_max":964,"o":"m 406 1261 q 589 1088 524 1179 l 589 1084 l 581 1070 l 578 1070 l 576 1074 q 566 1057 576 1061 l 557 1057 l 555 1060 l 549 1053 l 541 1060 l 541 1049 q 526 1035 541 1035 l 526 1031 l 528 1028 l 528 1017 l 523 1017 q 414 1106 510 1017 q 326 1191 326 1163 l 326 1198 q 344 1223 337 1221 q 406 1261 344 1246 m 790 991 q 813 968 790 968 l 813 957 l 795 957 l 795 951 q 825 939 825 951 l 825 933 l 802 933 q 836 916 802 916 l 836 904 l 819 904 l 819 899 l 888 899 l 941 869 l 935 863 l 935 858 q 964 846 964 858 q 749 800 964 825 q 470 718 675 800 l 406 590 l 412 590 q 592 608 443 602 l 604 590 l 586 584 l 586 578 q 633 567 633 578 l 604 555 l 604 549 l 615 549 l 610 532 q 656 485 610 503 l 656 479 l 650 473 l 650 468 q 680 456 680 468 l 680 450 q 313 357 680 433 q 196 182 267 357 l 615 252 l 615 241 l 621 241 l 650 247 q 680 218 658 218 l 680 200 q 650 182 665 200 l 638 182 l 638 177 l 673 177 l 673 165 l 644 165 l 650 159 l 650 153 l 644 148 q 737 119 730 148 l 732 113 q 761 95 761 109 q 412 8 709 62 q 62 -97 62 -51 q 10 -149 54 -127 l 4 -149 l -31 -120 l -43 -120 l -72 -126 q -130 -97 -72 -111 l -147 -102 l -153 -97 l -153 -91 l -147 -73 l -159 -73 l -165 -79 l -170 -79 l -176 -73 l -176 -68 q 254 910 -128 105 q 336 980 254 968 l 563 974 l 790 991 z "},"":{"ha":781,"x_min":-163,"x_max":978,"o":"m 747 1257 q 829 1218 829 1241 q 853 1193 838 1217 l 853 1186 q 736 1101 853 1158 q 591 1013 608 1013 l 585 1013 l 585 1023 l 588 1027 l 588 1030 q 567 1044 567 1030 l 567 1055 l 556 1048 l 549 1055 l 546 1052 l 535 1052 q 521 1069 521 1057 l 517 1065 l 514 1065 l 503 1080 l 503 1084 q 747 1257 591 1174 m 804 991 q 827 968 804 968 l 827 957 l 809 957 l 809 951 q 838 939 838 951 l 838 933 l 815 933 q 850 916 815 916 l 850 904 l 832 904 l 832 899 l 902 899 l 955 869 l 949 863 l 949 858 q 978 846 978 858 q 762 800 978 825 q 484 718 689 800 l 419 590 l 425 590 q 606 608 456 602 l 617 590 l 600 584 l 600 578 q 646 567 646 578 l 617 555 l 617 549 l 629 549 l 623 532 q 669 485 623 503 l 669 479 l 664 473 l 664 468 q 693 456 693 468 l 693 450 q 326 357 693 433 q 210 182 281 357 l 629 252 l 629 241 l 635 241 l 664 247 q 693 218 671 218 l 693 200 q 664 182 679 200 l 652 182 l 652 177 l 687 177 l 687 165 l 658 165 l 664 159 l 664 153 l 658 148 q 751 119 744 148 l 745 113 q 774 95 774 109 q 425 8 723 62 q 76 -97 76 -51 q 24 -149 68 -127 l 18 -149 l -17 -120 l -29 -120 l -58 -126 q -116 -97 -58 -111 l -134 -102 l -140 -97 l -140 -91 l -134 -73 l -145 -73 l -151 -79 l -157 -79 l -163 -73 l -163 -68 q 268 910 -115 105 q 349 980 268 968 l 576 974 l 804 991 z "},"":{"ha":616,"x_min":0,"x_max":0,"o":""},"":{"ha":781,"x_min":-176,"x_max":964,"o":"m 468 1221 l 484 1221 q 552 1175 519 1221 l 552 1169 q 481 1082 490 1082 l 479 1082 q 463 1096 463 1088 l 460 1093 l 457 1093 q 400 1123 423 1093 l 400 1131 q 449 1218 400 1158 l 468 1221 m 728 1221 q 807 1175 772 1221 l 807 1172 q 742 1074 807 1154 l 734 1074 l 720 1085 l 707 1082 l 701 1093 l 690 1085 l 677 1085 q 655 1120 655 1101 q 718 1221 682 1221 l 728 1221 m 790 991 q 813 968 790 968 l 813 957 l 795 957 l 795 951 q 825 939 825 951 l 825 933 l 802 933 q 836 916 802 916 l 836 904 l 819 904 l 819 899 l 888 899 l 941 869 l 935 863 l 935 858 q 964 846 964 858 q 749 800 964 825 q 470 718 675 800 l 406 590 l 412 590 q 592 608 443 602 l 604 590 l 586 584 l 586 578 q 633 567 633 578 l 604 555 l 604 549 l 615 549 l 610 532 q 656 485 610 503 l 656 479 l 650 473 l 650 468 q 680 456 680 468 l 680 450 q 313 357 680 433 q 196 182 267 357 l 615 252 l 615 241 l 621 241 l 650 247 q 680 218 658 218 l 680 200 q 650 182 665 200 l 638 182 l 638 177 l 673 177 l 673 165 l 644 165 l 650 159 l 650 153 l 644 148 q 737 119 730 148 l 732 113 q 761 95 761 109 q 412 8 709 62 q 62 -97 62 -51 q 10 -149 54 -127 l 4 -149 l -31 -120 l -43 -120 l -72 -126 q -130 -97 -72 -111 l -147 -102 l -153 -97 l -153 -91 l -147 -73 l -159 -73 l -165 -79 l -170 -79 l -176 -73 l -176 -68 q 254 910 -128 105 q 336 980 254 968 l 563 974 l 790 991 z "},"":{"ha":446,"x_min":-203,"x_max":541,"o":"m 334 1261 q 517 1088 452 1179 l 517 1084 l 509 1070 l 507 1070 l 504 1074 q 494 1057 504 1061 l 486 1057 l 483 1060 l 477 1053 l 469 1060 l 469 1049 q 454 1035 469 1035 l 454 1031 l 456 1028 l 456 1017 l 451 1017 q 342 1106 438 1017 q 254 1191 254 1163 l 254 1198 q 272 1223 265 1221 q 334 1261 272 1246 m 328 978 l 366 978 q 541 878 478 978 l 541 853 q 422 641 541 836 l 147 73 q 72 -40 94 -26 l 66 -33 l 60 -33 l 47 -64 l 35 -64 l 47 -21 l -22 -134 l -28 -134 l -34 -127 l -34 -121 l -28 -115 l -28 -102 l -34 -102 l -59 -159 l -72 -159 l -72 -152 l -59 -121 l -159 -202 l -178 -190 l -172 -183 l -172 -165 l -191 -177 l -203 -165 q 247 903 -203 -83 q 328 978 274 978 z "},"":{"ha":446,"x_min":-211,"x_max":701,"o":"m 595 1257 q 677 1218 677 1241 q 701 1193 686 1217 l 701 1186 q 585 1101 701 1158 q 439 1013 456 1013 l 433 1013 l 433 1023 l 436 1027 l 436 1030 q 415 1044 415 1030 l 415 1055 l 404 1048 l 397 1055 l 394 1052 l 383 1052 q 369 1069 369 1057 l 366 1065 l 362 1065 l 351 1080 l 351 1084 q 595 1257 439 1174 m 320 978 l 357 978 q 532 878 470 978 l 532 853 q 414 641 532 836 l 139 73 q 64 -40 85 -26 l 58 -33 l 52 -33 l 39 -64 l 26 -64 l 39 -21 l -30 -134 l -36 -134 l -42 -127 l -42 -121 l -36 -115 l -36 -102 l -42 -102 l -67 -159 l -80 -159 l -80 -152 l -67 -121 l -168 -202 l -186 -190 l -180 -183 l -180 -165 l -199 -177 l -211 -165 q 239 903 -211 -83 q 320 978 266 978 z "},"":{"ha":349,"x_min":0,"x_max":0,"o":""},"":{"ha":446,"x_min":-231,"x_max":644,"o":"m 305 1221 l 321 1221 q 389 1175 356 1221 l 389 1169 q 319 1082 328 1082 l 316 1082 q 300 1096 300 1088 l 297 1093 l 294 1093 q 237 1123 260 1093 l 237 1131 q 286 1218 237 1158 l 305 1221 m 566 1221 q 644 1175 609 1221 l 644 1172 q 579 1074 644 1154 l 571 1074 l 557 1085 l 544 1082 l 538 1093 l 528 1085 l 514 1085 q 492 1120 492 1101 q 555 1221 519 1221 l 566 1221 m 300 978 l 337 978 q 512 878 450 978 l 512 853 q 393 641 512 836 l 119 73 q 43 -40 65 -26 l 37 -33 l 31 -33 l 18 -64 l 6 -64 l 18 -21 l -50 -134 l -56 -134 l -62 -127 l -62 -121 l -56 -115 l -56 -102 l -62 -102 l -87 -159 l -100 -159 l -100 -152 l -87 -121 l -188 -202 l -206 -190 l -200 -183 l -200 -165 l -219 -177 l -231 -165 q 218 903 -231 -83 q 300 978 245 978 z "},"":{"ha":772,"x_min":0,"x_max":0,"o":""},"":{"ha":751,"x_min":-309,"x_max":1046,"o":"m 456 1261 l 475 1261 q 781 1163 512 1261 l 831 1153 q 946 1187 859 1153 l 946 1182 l 952 1187 l 978 1187 l 978 1182 l 920 1119 l 927 1119 l 933 1124 l 933 1114 l 959 1128 l 965 1124 l 971 1124 l 984 1133 l 984 1128 q 831 1040 916 1040 l 806 1040 q 520 1104 770 1040 l 501 1104 q 361 1069 475 1104 l 279 1055 l 266 1069 l 266 1080 q 349 1232 266 1164 q 456 1261 393 1261 m 869 1017 l 911 1017 q 1046 944 993 1017 l 1046 926 l 814 328 q 643 -117 728 170 l 625 -136 l 606 -136 l 582 -117 l 576 -123 l 545 -123 l 515 -105 l 454 -111 l 405 -56 l 405 -14 q 448 115 405 14 l 290 492 l 241 639 l 235 639 l -9 127 q -71 -75 -52 39 l -64 -81 l -64 -87 q -89 -136 -75 -136 l -107 -136 l -168 -99 l -180 -99 l -205 -105 l -223 -99 l -235 -111 l -241 -105 l -248 -105 l -254 -111 l -309 -38 l -309 -14 q -22 657 -309 96 l 125 968 q 332 1005 158 995 q 417 944 373 1005 l 417 938 q 576 426 417 765 q 765 926 661 572 q 838 1005 786 1005 q 869 1017 838 1016 z "},"":{"ha":1095,"x_min":9,"x_max":1086,"o":"m 605 1261 q 789 1088 723 1179 l 789 1084 l 781 1070 l 778 1070 l 775 1074 q 765 1057 775 1061 l 757 1057 l 754 1060 l 749 1053 l 741 1060 l 741 1049 q 725 1035 741 1035 l 725 1031 l 728 1028 l 728 1017 l 722 1017 q 613 1106 709 1017 q 525 1191 525 1163 l 525 1198 q 543 1223 536 1221 q 605 1261 543 1246 m 890 1015 l 897 1015 q 1027 890 961 1015 l 1034 884 l 1034 853 q 936 803 1034 824 l 936 797 q 1086 449 1086 611 l 1086 418 q 740 -98 1086 16 q 545 -130 622 -130 l 473 -130 q 35 181 169 -130 q 9 293 16 185 l 9 337 q 446 884 9 638 q 890 1015 722 1015 m 251 281 l 251 275 q 388 151 251 167 l 440 151 q 831 393 651 151 q 870 561 859 456 q 851 667 864 648 l 857 685 q 831 779 840 779 q 388 530 640 753 q 251 281 251 397 z "},"":{"ha":685,"x_min":-168,"x_max":909,"o":"m 709 1257 q 790 1218 790 1241 q 814 1193 799 1217 l 814 1186 q 698 1101 814 1158 q 553 1013 570 1013 l 546 1013 l 546 1023 l 549 1027 l 549 1030 q 528 1044 528 1030 l 528 1055 l 517 1048 l 511 1055 l 507 1052 l 496 1052 q 482 1069 482 1057 l 479 1065 l 475 1065 l 465 1080 l 465 1084 q 709 1257 552 1174 m 713 1015 l 720 1015 q 850 890 784 1015 l 857 884 l 857 853 q 759 803 857 824 l 759 797 q 909 449 909 611 l 909 418 q 563 -98 909 16 q 368 -130 445 -130 l 296 -130 q -142 181 -8 -130 q -168 293 -161 185 l -168 337 q 269 884 -168 638 q 713 1015 545 1015 m 74 281 l 74 275 q 211 151 74 167 l 263 151 q 654 393 474 151 q 693 561 682 456 q 674 667 687 648 l 680 685 q 654 779 663 779 q 211 530 463 753 q 74 281 74 397 z "},"":{"ha":685,"x_min":0,"x_max":0,"o":""},"":{"ha":685,"x_min":0,"x_max":0,"o":""},"":{"ha":685,"x_min":-196,"x_max":880,"o":"m 428 1221 l 444 1221 q 512 1175 479 1221 l 512 1169 q 441 1082 450 1082 l 439 1082 q 422 1096 422 1088 l 420 1093 l 417 1093 q 360 1123 383 1093 l 360 1131 q 409 1218 360 1158 l 428 1221 m 688 1221 q 767 1175 732 1221 l 767 1172 q 702 1074 767 1154 l 694 1074 l 680 1085 l 667 1082 l 661 1093 l 650 1085 l 637 1085 q 615 1120 615 1101 q 677 1221 642 1221 l 688 1221 m 684 1015 l 691 1015 q 821 890 755 1015 l 828 884 l 828 853 q 730 803 828 824 l 730 797 q 880 449 880 611 l 880 418 q 534 -98 880 16 q 339 -130 416 -130 l 267 -130 q -170 181 -37 -130 q -196 293 -189 185 l -196 337 q 241 884 -196 638 q 684 1015 517 1015 m 45 281 l 45 275 q 182 151 45 167 l 235 151 q 626 393 446 151 q 665 561 654 456 q 646 667 659 648 l 652 685 q 626 779 634 779 q 182 530 434 753 q 45 281 45 397 z "},"":{"ha":688,"x_min":59,"x_max":629,"o":"m 59 439 l 59 534 l 628 534 l 629 533 l 629 439 l 59 439 m 270 277 l 326 334 q 345 343 336 343 q 366 332 354 343 l 420 274 q 429 254 429 263 q 419 233 429 244 l 365 174 q 345 160 351 160 q 326 170 334 160 l 266 238 q 259 256 259 247 q 270 277 259 266 m 270 747 l 326 804 q 345 813 336 813 q 366 802 354 813 l 420 744 q 429 724 429 733 q 419 703 429 714 l 365 644 q 345 630 351 630 q 326 640 334 630 l 266 708 q 259 726 259 717 q 270 747 259 736 z "},"":{"ha":685,"x_min":0,"x_max":0,"o":""},"":{"ha":1018,"x_min":-142,"x_max":893,"o":"m 466 1261 q 650 1088 584 1179 l 650 1084 l 642 1070 l 639 1070 l 636 1074 q 626 1057 636 1061 l 618 1057 l 615 1060 l 610 1053 l 602 1060 l 602 1049 q 586 1035 602 1035 l 586 1031 l 589 1028 l 589 1017 l 583 1017 q 474 1106 570 1017 q 386 1191 386 1163 l 386 1198 q 404 1223 397 1221 q 466 1261 404 1246 m 207 1013 l 237 1013 q 391 913 331 1013 l 396 889 q 266 593 396 840 q 130 102 130 325 l 130 84 q 378 327 283 184 q 645 741 604 614 l 680 818 q 698 836 698 818 l 704 842 l 716 842 l 716 818 l 722 818 q 751 918 738 918 l 758 918 l 758 895 l 763 895 l 763 942 l 775 942 l 775 924 q 828 1013 796 935 l 834 1013 q 893 842 893 958 q 391 -46 893 451 q 172 -106 294 -106 q -131 60 -56 -106 l -142 132 l -142 161 q -47 575 -142 394 l 106 937 q 207 1013 157 1013 z "},"":{"ha":718,"x_min":-149,"x_max":886,"o":"m 701 1257 q 782 1218 782 1241 q 806 1193 791 1217 l 806 1186 q 690 1101 806 1158 q 545 1013 562 1013 l 538 1013 l 538 1023 l 541 1027 l 541 1030 q 520 1044 520 1030 l 520 1055 l 509 1048 l 503 1055 l 499 1052 l 488 1052 q 474 1069 474 1057 l 471 1065 l 467 1065 l 456 1080 l 456 1084 q 701 1257 544 1174 m 200 1013 l 230 1013 q 384 913 324 1013 l 389 889 q 259 593 389 840 q 123 102 123 325 l 123 84 q 372 327 276 184 q 638 741 597 614 l 673 818 q 691 836 691 818 l 697 842 l 709 842 l 709 818 l 715 818 q 745 918 731 918 l 751 918 l 751 895 l 756 895 l 756 942 l 768 942 l 768 924 q 821 1013 789 935 l 827 1013 q 886 842 886 958 q 384 -46 886 451 q 165 -106 288 -106 q -138 60 -62 -106 l -149 132 l -149 161 q -54 575 -149 394 l 100 937 q 200 1013 150 1013 z "},"":{"ha":718,"x_min":0,"x_max":0,"o":""},"":{"ha":718,"x_min":-142,"x_max":893,"o":"m 435 1221 l 451 1221 q 519 1175 486 1221 l 519 1169 q 448 1082 457 1082 l 446 1082 q 429 1096 429 1088 l 427 1093 l 424 1093 q 367 1123 390 1093 l 367 1131 q 416 1218 367 1158 l 435 1221 m 695 1221 q 774 1175 739 1221 l 774 1172 q 709 1074 774 1154 l 701 1074 l 687 1085 l 673 1082 l 668 1093 l 657 1085 l 644 1085 q 622 1120 622 1101 q 684 1221 648 1221 l 695 1221 m 207 1013 l 237 1013 q 391 913 331 1013 l 396 889 q 266 593 396 840 q 130 102 130 325 l 130 84 q 378 327 283 184 q 645 741 604 614 l 680 818 q 698 836 698 818 l 704 842 l 716 842 l 716 818 l 722 818 q 751 918 738 918 l 758 918 l 758 895 l 763 895 l 763 942 l 775 942 l 775 924 q 828 1013 796 935 l 834 1013 q 893 842 893 958 q 391 -46 893 451 q 172 -106 294 -106 q -131 60 -56 -106 l -142 132 l -142 161 q -47 575 -142 394 l 106 937 q 207 1013 157 1013 z "},"":{"ha":589,"x_min":0,"x_max":0,"o":""},"":{"ha":685,"x_min":0,"x_max":0,"o":""},"":{"ha":589,"x_min":0,"x_max":0,"o":""},"":{"ha":349,"x_min":13,"x_max":321,"o":"m 222 151 q 290 34 222 34 l 321 34 l 321 0 l 22 0 l 22 34 l 53 34 q 121 151 121 34 l 121 444 q 45 496 121 496 l 13 496 l 13 526 q 190 650 163 573 l 222 650 l 222 151 z "},"":{"ha":694,"x_min":150,"x_max":545,"o":"m 150 732 l 307 972 l 387 972 l 545 732 l 505 732 l 347 878 l 189 732 l 150 732 z "},"":{"ha":694,"x_min":150,"x_max":545,"o":"m 150 972 l 189 972 l 347 827 l 505 972 l 545 972 l 387 731 l 307 731 l 150 972 z "},"":{"ha":694,"x_min":172,"x_max":522,"o":"m 172 810 l 172 895 l 522 895 l 522 810 l 172 810 z "},"":{"ha":694,"x_min":149,"x_max":545,"o":"m 149 915 l 183 915 q 234 842 195 865 q 347 819 273 819 q 460 842 421 819 q 510 915 498 865 l 545 915 q 481 778 531 825 q 347 732 431 732 q 214 779 264 732 q 149 915 163 825 z "},"":{"ha":694,"x_min":277,"x_max":422,"o":"m 286 874 l 333 923 q 342 929 337 927 q 351 931 347 931 q 360 929 355 931 q 368 923 364 927 l 416 871 q 421 865 420 869 q 422 855 422 861 q 420 845 422 849 q 415 837 419 841 l 367 785 q 356 776 359 778 q 351 774 353 774 q 340 776 345 774 q 333 782 336 778 l 282 841 q 278 847 279 844 q 277 857 277 851 q 279 865 277 861 q 286 874 281 869 z "},"":{"ha":694,"x_min":227,"x_max":468,"o":"m 279 852 q 298 804 279 824 q 347 785 318 785 q 395 804 375 785 q 414 852 414 824 q 394 900 414 880 q 347 920 374 920 q 299 900 319 920 q 279 852 279 880 m 227 852 q 262 938 227 903 q 347 972 296 972 q 433 938 398 972 q 468 852 468 903 q 433 767 468 802 q 347 732 398 732 q 262 767 296 732 q 227 852 227 802 z "},"":{"ha":694,"x_min":250,"x_max":500,"o":"m 434 0 q 359 -81 386 -42 q 332 -157 332 -120 q 351 -208 332 -189 q 400 -227 369 -227 q 447 -217 427 -227 q 481 -184 467 -206 l 500 -195 q 438 -260 475 -237 q 357 -283 401 -283 q 280 -259 310 -283 q 250 -198 250 -235 q 291 -92 250 -146 q 401 0 332 -37 l 434 0 z "},"":{"ha":694,"x_min":159,"x_max":548,"o":"m 548 937 q 502 833 534 867 q 416 798 469 798 l 413 798 q 336 814 379 798 q 259 830 292 830 q 218 816 233 830 q 195 768 203 802 l 159 768 q 205 875 172 840 q 292 911 238 911 q 369 895 323 910 q 445 879 412 879 l 448 879 q 487 892 472 879 q 511 937 502 906 l 548 937 z "},"":{"ha":694,"x_min":147,"x_max":547,"o":"m 147 732 l 245 917 q 276 960 261 947 q 307 972 290 972 q 340 959 326 972 q 353 927 353 945 q 346 903 353 916 q 326 876 339 890 l 186 732 l 147 732 m 340 732 l 438 917 q 469 960 454 947 q 500 972 484 972 q 533 959 519 972 q 547 927 547 945 q 539 903 547 916 q 519 876 532 890 l 380 732 l 340 732 z "},"":{"ha":751,"x_min":38,"x_max":713,"o":"m 38 284 l 38 366 l 713 366 l 713 284 l 38 284 z "},"":{"ha":1389,"x_min":0,"x_max":1389,"o":"m 0 284 l 0 366 l 1389 366 l 1389 284 l 0 284 z "},"":{"ha":378,"x_min":126,"x_max":297,"o":"m 216 689 q 156 733 186 689 q 126 836 126 778 q 174 990 126 910 q 269 1069 222 1069 l 269 1040 q 210 911 219 1011 q 297 802 210 831 l 297 774 l 216 689 z "},"":{"ha":378,"x_min":81,"x_max":252,"o":"m 161 1069 q 221 1025 191 1069 q 252 922 252 981 q 203 769 252 848 q 109 689 155 689 l 109 718 q 168 847 159 747 q 81 956 168 928 l 81 985 l 161 1069 z "},"":{"ha":378,"x_min":81,"x_max":252,"o":"m 161 191 q 221 146 191 191 q 252 43 252 102 q 203 -110 252 -31 q 109 -190 155 -190 l 109 -161 q 168 -32 159 -132 q 81 77 168 49 l 81 106 l 161 191 z "},"":{"ha":617,"x_min":55,"x_max":562,"o":"m 130 1080 q 186 1057 158 1080 q 351 772 330 859 l 346 758 l 285 763 l 262 758 l 252 768 l 248 768 l 248 753 l 238 753 q 55 989 55 949 l 55 1016 l 60 1021 l 55 1025 q 106 1080 83 1069 l 130 1080 m 412 1034 q 562 768 546 859 l 548 749 l 534 753 l 530 753 l 525 749 l 520 749 l 515 753 q 487 735 515 745 l 482 735 l 477 740 q 464 722 475 722 l 454 722 q 351 850 401 779 q 267 984 267 942 l 267 989 q 374 1053 296 1053 l 412 1034 z "},"":{"ha":617,"x_min":61,"x_max":558,"o":"m 484 1084 l 507 1084 q 558 1029 531 1074 l 553 1025 l 558 1020 l 558 993 q 378 758 558 953 l 370 758 l 370 772 l 365 772 l 355 762 l 332 767 l 273 762 l 268 777 q 429 1061 289 863 q 484 1084 458 1084 m 245 1057 q 351 993 322 1057 l 351 988 q 268 854 351 946 q 167 726 220 783 l 158 726 q 144 744 146 726 l 139 739 l 135 739 q 107 758 107 749 l 102 753 l 98 753 l 94 758 l 89 758 l 75 753 l 61 772 q 208 1038 77 863 l 245 1057 z "},"":{"ha":617,"x_min":81,"x_max":491,"o":"m 161 191 q 221 146 191 191 q 252 43 252 102 q 203 -110 252 -31 q 109 -190 155 -190 l 109 -161 q 168 -32 159 -132 q 81 77 168 49 l 81 106 l 161 191 m 401 191 q 461 146 431 191 q 491 43 491 102 q 443 -110 491 -31 q 349 -190 395 -190 l 349 -161 q 408 -32 398 -132 q 320 77 408 49 l 320 106 l 401 191 z "},"":{"ha":688,"x_min":48,"x_max":640,"o":"m 330 693 q 293 814 324 759 q 254 901 254 882 q 279 955 254 935 q 344 975 303 975 q 408 956 382 975 q 433 907 433 937 q 396 814 433 886 q 359 693 365 757 q 479 730 424 699 q 566 768 547 768 q 620 744 600 768 q 640 679 640 720 q 622 615 640 640 q 572 589 603 589 q 480 627 551 589 q 359 665 422 658 q 433 477 364 546 q 357 -183 361 165 l 332 -183 q 254 477 328 165 q 330 665 323 546 q 209 628 264 659 q 121 589 140 589 q 68 614 88 589 q 48 679 48 638 q 67 743 48 718 q 115 768 85 768 q 208 730 137 768 q 330 693 266 699 z "},"":{"ha":688,"x_min":47,"x_max":640,"o":"m 358 126 q 479 165 422 134 q 572 202 550 202 q 621 177 602 202 q 640 113 640 151 q 619 47 640 72 q 566 23 599 23 q 478 62 547 23 q 358 98 423 93 q 395 -23 364 35 q 433 -116 433 -94 q 407 -164 433 -146 q 343 -183 382 -183 q 278 -163 302 -183 q 254 -110 254 -143 q 292 -22 254 -91 q 329 98 323 33 q 208 61 265 92 q 115 23 136 23 q 66 48 85 23 q 47 113 47 74 q 67 178 47 153 q 121 202 87 202 q 208 163 140 202 q 329 126 264 133 q 254 396 323 279 q 329 665 323 512 q 208 628 264 659 q 121 589 140 589 q 67 614 87 589 q 47 679 47 638 q 66 743 47 718 q 115 768 85 768 q 208 730 136 768 q 329 693 265 699 q 292 814 323 759 q 254 901 254 882 q 278 955 254 935 q 343 975 302 975 q 407 956 382 975 q 433 907 433 937 q 395 814 433 886 q 358 693 364 757 q 478 730 423 699 q 566 768 547 768 q 619 744 599 768 q 640 679 640 720 q 621 615 640 640 q 572 589 602 589 q 479 627 550 589 q 358 665 422 658 q 433 396 363 512 q 358 126 363 279 z "},"":{"ha":694,"x_min":146,"x_max":548,"o":"m 146 487 q 205 629 146 570 q 348 687 264 687 q 489 628 431 687 q 548 487 548 570 q 489 345 548 404 q 347 286 429 286 q 205 345 263 286 q 146 487 146 404 z "},"":{"ha":1389,"x_min":87,"x_max":1183,"o":"m 98 113 l 154 170 q 174 180 164 180 q 195 169 182 180 l 249 111 q 257 91 257 100 q 248 70 257 81 l 193 10 q 174 -3 180 -3 q 154 6 163 -3 l 94 75 q 87 92 87 83 q 98 113 87 102 m 562 113 l 617 170 q 637 180 627 180 q 658 169 646 180 l 712 111 q 720 91 720 100 q 711 70 720 81 l 656 10 q 637 -3 643 -3 q 617 6 626 -3 l 557 75 q 551 92 551 83 q 562 113 551 102 m 1025 113 l 1080 170 q 1100 180 1090 180 q 1121 169 1109 180 l 1175 111 q 1183 91 1183 100 q 1174 70 1183 81 l 1120 10 q 1100 -3 1106 -3 q 1080 6 1089 -3 l 1021 75 q 1014 92 1014 83 q 1025 113 1014 102 z "},"":{"ha":428,"x_min":118,"x_max":359,"o":"m 118 325 l 350 530 l 359 530 l 359 505 l 220 325 l 359 144 l 359 119 l 350 119 l 118 325 z "},"":{"ha":428,"x_min":68,"x_max":310,"o":"m 78 119 l 68 119 l 68 144 l 208 325 l 68 505 l 68 530 l 78 530 l 310 325 l 78 119 z "},"":{"ha":232,"x_min":-232,"x_max":463,"o":"m -232 -20 l 406 971 l 463 971 l -174 -20 l -232 -20 z "},"":{"ha":688,"x_min":33,"x_max":723,"o":"m 168 242 l 36 242 l 36 283 l 168 283 l 168 779 q 98 939 168 939 l 33 939 l 33 972 l 653 972 l 723 816 l 690 816 q 561 939 650 939 l 347 939 q 277 779 277 939 l 277 541 l 522 541 q 590 583 590 541 l 590 623 l 624 623 l 624 391 l 590 391 l 590 431 q 522 473 590 473 l 277 473 l 277 283 l 409 283 l 409 242 l 277 242 l 277 193 q 347 34 277 34 l 412 34 l 412 0 l 33 0 l 33 34 l 98 34 q 168 193 168 34 l 168 242 z "},"":{"ha":688,"x_min":52,"x_max":635,"o":"m 507 913 q 399 935 458 935 l 397 935 q 269 866 330 935 q 212 703 212 803 q 212 682 212 692 q 235 538 212 610 l 492 538 l 492 497 l 248 497 q 266 456 256 477 l 505 456 l 505 416 l 287 416 q 311 322 311 373 q 201 68 311 213 l 473 68 q 602 157 562 68 l 635 157 l 565 0 l 77 0 l 78 34 q 205 317 205 195 q 182 414 205 370 l 180 416 l 64 416 l 64 456 l 161 456 q 143 497 151 477 l 52 497 l 52 538 l 128 538 q 104 669 104 610 q 188 904 104 822 q 398 986 271 986 q 524 977 449 986 q 599 954 599 967 l 599 844 l 559 844 q 507 913 556 886 z "},"":{"ha":1375,"x_min":33,"x_max":1334,"o":"m 277 939 l 277 490 q 282 478 279 484 q 355 374 310 409 q 434 345 394 345 q 447 345 441 345 q 533 396 493 351 q 592 516 573 441 q 607 637 607 575 q 606 669 607 654 q 573 818 602 748 q 499 916 544 887 q 423 939 461 939 q 409 939 416 939 l 277 939 m 1015 616 l 893 616 l 893 151 q 916 71 893 96 q 971 45 935 50 l 923 176 l 956 176 q 1034 58 994 88 q 1120 28 1072 28 l 1124 28 q 1227 64 1187 28 q 1267 156 1267 100 q 1091 309 1267 225 q 994 385 1023 345 q 964 484 964 426 q 1014 615 964 566 l 1015 616 m 705 617 q 672 486 700 549 q 576 365 638 408 q 448 322 515 322 q 318 366 380 322 q 277 400 296 380 l 277 193 q 347 34 277 34 l 412 34 l 412 0 l 33 0 l 33 34 l 98 34 q 168 193 168 34 l 168 779 q 98 939 168 939 l 33 939 l 33 972 l 452 972 q 574 930 514 971 q 671 810 636 888 q 706 650 705 734 l 713 650 q 859 890 859 650 l 893 890 l 893 650 l 1069 650 q 1143 663 1097 663 l 1145 663 q 1235 654 1181 663 q 1289 631 1289 645 l 1289 524 l 1261 524 q 1216 597 1258 568 q 1126 625 1175 625 q 1056 601 1082 625 q 1030 535 1030 576 q 1190 386 1030 462 q 1303 306 1272 349 q 1334 202 1334 264 q 1278 45 1334 107 q 1123 -13 1208 -12 q 1052 -5 1084 -13 q 1014 -1 1033 -1 q 989 -3 1002 -1 q 949 -7 970 -7 q 832 32 865 -7 q 793 151 798 71 l 792 151 l 792 617 l 705 617 z "},"":{"ha":688,"x_min":-30,"x_max":724,"o":"m 95 252 q 43 443 53 344 l -30 443 l -18 484 l 41 484 l 41 503 q 41 524 41 514 l -7 524 l 5 565 l 44 565 q 96 755 54 663 q 249 941 151 876 q 451 1006 347 1006 q 510 1001 480 1006 q 566 981 537 994 q 576 977 571 977 q 600 1008 590 977 l 627 1008 l 684 817 l 657 817 q 564 937 624 907 q 509 959 534 952 l 509 961 q 440 972 475 972 q 417 970 429 972 q 264 893 336 962 q 157 708 192 825 q 131 565 136 637 l 610 565 l 598 524 l 129 524 q 130 484 129 504 l 587 484 l 576 443 l 134 443 q 190 241 145 336 q 321 81 240 134 q 467 34 390 35 q 641 96 593 36 q 691 221 691 157 l 724 221 l 724 124 q 648 38 724 77 q 467 0 577 1 q 247 66 345 0 q 95 252 149 133 z "},"":{"ha":1540,"x_min":0,"x_max":0,"o":""},"":{"ha":1015,"x_min":0,"x_max":0,"o":""},"":{"ha":688,"x_min":52,"x_max":635,"o":"m 157 364 q 161 311 157 336 q 202 155 170 228 q 283 43 235 81 q 370 7 326 7 q 378 7 374 7 q 465 55 426 11 q 519 177 504 100 q 530 278 530 227 q 527 336 530 307 q 485 493 517 418 q 404 605 452 567 q 317 639 359 639 l 309 639 q 224 592 263 635 q 168 471 184 548 q 157 364 157 414 m 635 323 q 597 153 635 234 q 489 28 559 73 q 344 -17 420 -17 q 198 28 268 -17 q 91 153 129 73 q 52 323 52 234 q 92 494 52 412 q 201 619 131 575 q 344 663 271 663 q 488 619 418 663 q 524 591 507 607 q 366 847 467 751 q 144 952 264 943 l 144 989 q 494 796 352 989 q 635 323 635 603 z "},"":{"ha":733,"x_min":4,"x_max":728,"o":"m 349 810 l 73 83 l 616 83 l 349 810 m 371 972 l 728 0 l 4 0 l 371 972 z "},"":{"ha":1027,"x_min":33,"x_max":995,"o":"m 347 939 q 277 779 277 939 l 277 -90 q 347 -249 277 -249 l 412 -249 l 412 -283 l 33 -283 l 33 -249 l 98 -249 q 168 -90 168 -249 l 168 779 q 98 939 168 939 l 33 939 l 33 972 l 995 972 l 995 939 l 929 939 q 860 779 860 939 l 860 -90 q 929 -249 860 -249 l 995 -249 l 995 -283 l 615 -283 l 615 -249 l 680 -249 q 750 -90 750 -249 l 750 779 q 680 939 750 939 l 347 939 z "},"":{"ha":818,"x_min":81,"x_max":776,"o":"m 718 372 l 184 -248 l 614 -248 q 743 -125 703 -248 l 776 -125 l 706 -282 l 81 -282 l 81 -248 q 153 -212 123 -248 l 603 317 l 153 900 q 81 939 123 939 l 81 972 l 706 972 l 776 815 l 743 815 q 614 939 703 939 l 286 939 l 718 372 z "},"":{"ha":688,"x_min":59,"x_max":629,"o":"m 59 439 l 59 534 l 628 534 l 629 533 l 629 439 l 59 439 z "},"":{"ha":688,"x_min":12,"x_max":715,"o":"m 123 0 l 12 243 l 62 267 l 119 142 l 613 1139 l 715 1139 l 715 1098 l 666 1098 l 123 0 z "},"":{"ha":688,"x_min":45,"x_max":645,"o":"m 298 512 q 248 602 288 582 q 191 617 216 617 q 175 616 182 617 q 112 586 142 609 q 68 528 83 562 q 54 467 54 497 l 54 462 q 73 401 56 429 q 121 362 90 374 q 163 355 141 355 q 185 357 174 355 q 247 386 217 363 q 298 512 276 409 m 316 466 q 380 362 324 401 q 463 330 427 330 q 477 331 471 330 q 557 366 519 339 q 614 435 595 393 q 632 508 632 471 l 632 515 q 608 589 631 556 q 546 635 585 622 q 494 644 521 644 q 465 642 479 644 q 378 600 419 635 q 316 466 338 564 m 305 561 q 319 608 311 585 q 384 701 342 667 q 471 734 425 734 q 557 701 516 734 q 622 610 599 669 q 645 486 645 551 q 622 363 645 422 q 557 271 599 304 q 471 239 516 239 q 384 272 425 239 q 319 364 342 305 q 305 412 311 388 q 297 384 302 397 q 247 307 279 334 q 180 280 215 280 q 112 308 144 280 q 62 385 79 336 q 45 486 45 434 q 62 587 45 538 q 112 665 79 637 q 180 692 144 692 q 247 665 215 692 q 297 589 279 638 q 305 561 302 575 z "},"":{"ha":451,"x_min":-49,"x_max":492,"o":"m -8 -191 q -49 -171 -49 -191 l -49 -63 l -24 -63 q -1 -107 -24 -92 q 42 -121 22 -121 l 43 -121 q 121 -12 98 -121 q 148 203 142 98 l 195 701 l 201 743 q 292 1034 219 904 q 451 1164 366 1164 q 492 1144 492 1164 l 492 1036 l 467 1036 q 444 1080 467 1065 q 401 1095 420 1095 q 322 989 353 1095 q 289 743 292 884 l 239 222 q 151 -62 226 66 q -8 -191 76 -191 z "},"":{"ha":688,"x_min":64,"x_max":626,"o":"m 626 714 l 626 608 q 543 542 583 559 q 465 525 503 525 q 344 558 424 525 q 224 591 264 591 q 152 572 190 591 q 64 496 113 553 l 64 602 q 147 669 107 651 q 224 686 187 686 q 348 653 268 686 q 465 619 427 619 q 538 638 500 619 q 626 714 576 657 m 626 478 l 626 372 q 543 306 583 323 q 465 289 503 289 q 344 322 424 289 q 224 355 264 355 q 152 336 190 355 q 64 260 113 317 l 64 366 q 147 433 107 415 q 224 450 187 450 q 348 417 268 450 q 465 383 427 383 q 538 402 500 383 q 626 478 576 421 z "},"":{"ha":688,"x_min":59,"x_max":629,"o":"m 629 728 l 205 485 l 629 244 l 629 131 l 59 457 l 59 513 l 629 842 l 629 728 m 59 1 l 59 96 l 628 96 l 629 95 l 629 1 l 59 1 z "},"":{"ha":688,"x_min":59,"x_max":629,"o":"m 59 842 l 629 513 l 629 457 l 59 131 l 59 244 l 483 485 l 59 728 l 59 842 m 59 1 l 59 96 l 628 96 l 629 96 l 629 1 l 59 1 z "},"":{"ha":728,"x_min":0,"x_max":0,"o":""},"":{"ha":733,"x_min":0,"x_max":0,"o":""}}}
